<svg width="319" height="313" viewBox="0 0 319 313" fill="none" xmlns="http://www.w3.org/2000/svg">
<g filter="url(#filter0_d_311_36)">
<rect x="35" y="35.0002" width="249" height="243" rx="30" fill="#F5F5F5" shape-rendering="crispEdges"/>
<path d="M154.68 196.32C152.2 196.32 150.08 195.28 148.32 193.2C146.64 191.04 145 187.52 143.4 182.64C142.6 180.24 141.92 177.92 141.36 175.68C140.88 173.36 140.52 171.12 140.28 168.96C139.24 170.56 138.28 171.64 137.4 172.2C136.6 172.68 135.4 172.92 133.8 172.92C129.88 172.92 125.72 172.88 121.32 172.8C116.92 172.64 113 172.52 109.56 172.44C109.4 173.88 109.24 175.36 109.08 176.88C109 178.32 108.96 179.76 108.96 181.2C108.96 182.48 109 183.76 109.08 185.04C109.24 186.32 109.36 187.56 109.44 188.76C109.68 191 108.8 192.8 106.8 194.16C104.8 195.52 102.32 196.2 99.36 196.2C96.8 196.2 95.52 195.08 95.52 192.84C95.52 191.48 95.88 189.44 96.6 186.72C97 184.88 97.32 183.32 97.56 182.04C97.8 180.68 97.92 179.6 97.92 178.8C97.92 176.56 97.24 175.04 95.88 174.24C94.76 173.6 94.2 172.76 94.2 171.72C94.2 170.76 94.4 169.6 94.8 168.24C95.28 166.88 95.88 165.64 96.6 164.52C97.32 163.32 98 162.48 98.64 162C99.2 161.68 99.88 161.4 100.68 161.16C101.48 160.92 102.48 160.76 103.68 160.68C106.8 151.72 110.28 144 114.12 137.52C118.04 130.96 122.2 125.92 126.6 122.4C131 118.8 135.48 117 140.04 117C142.84 117 144.88 117.96 146.16 119.88C147.44 121.72 148.08 124.84 148.08 129.24V134.64C148.08 142.72 148.68 150.16 149.88 156.96C151.08 163.76 152.56 169.28 154.32 173.52C156.08 178 158.52 181.68 161.64 184.56C162.6 185.36 163.24 186.08 163.56 186.72C163.88 187.28 164.04 187.88 164.04 188.52C164.04 189.72 163.56 190.92 162.6 192.12C161.72 193.32 160.56 194.32 159.12 195.12C157.68 195.92 156.2 196.32 154.68 196.32ZM113.16 159.96C117.08 159.8 120.52 159.68 123.48 159.6C126.44 159.44 128.92 159.36 130.92 159.36H139.32C139.16 157.12 139 154.76 138.84 152.28C138.76 149.8 138.72 147.2 138.72 144.48V137.52C138.72 135.2 138.44 133.68 137.88 132.96C137.4 132.16 136.44 131.76 135 131.76C131.08 131.76 127.16 134.32 123.24 139.44C119.32 144.56 115.96 151.4 113.16 159.96ZM184.276 196.56C179.476 196.56 175.596 195.08 172.636 192.12C169.756 189.08 168.316 184.76 168.316 179.16C168.316 175.16 169.076 171.2 170.596 167.28C172.196 163.28 174.476 159.68 177.436 156.48C180.396 153.28 183.956 150.72 188.116 148.8C192.276 146.88 196.956 145.92 202.156 145.92C206.956 145.92 211.036 146.76 214.396 148.44C217.836 150.04 219.556 152.24 219.556 155.04C219.556 155.76 219.476 156.72 219.316 157.92C219.156 159.04 218.956 159.96 218.716 160.68C218.476 161.32 218.116 161.92 217.636 162.48C217.236 162.96 216.676 163.2 215.956 163.2C215.636 163.2 215.036 163.08 214.156 162.84C213.836 164.52 213.596 166.16 213.436 167.76C213.276 169.36 213.196 170.96 213.196 172.56C213.196 175.6 213.636 178.32 214.516 180.72C215.476 183.04 217.316 184.48 220.036 185.04C220.756 185.2 221.316 185.44 221.716 185.76C222.196 186.08 222.436 186.76 222.436 187.8C222.436 188.68 222.196 189.8 221.716 191.16C221.316 192.52 220.476 193.76 219.196 194.88C217.996 195.92 216.236 196.44 213.916 196.44C210.796 196.44 208.396 195.32 206.716 193.08C205.036 190.76 204.196 187.48 204.196 183.24C202.036 187.16 199.276 190.36 195.916 192.84C192.636 195.32 188.756 196.56 184.276 196.56ZM188.116 184.08C191.316 184.08 194.116 183.08 196.516 181.08C198.996 179.08 200.916 176.56 202.276 173.52C203.156 171.6 203.836 169.52 204.316 167.28C204.796 164.96 205.116 162.68 205.276 160.44C203.916 159.8 202.356 159.28 200.596 158.88C198.836 158.48 196.996 158.28 195.076 158.28C190.196 158.28 186.156 159.72 182.956 162.6C179.836 165.48 178.276 169.08 178.276 173.4C178.276 176.6 179.156 179.2 180.916 181.2C182.676 183.12 185.076 184.08 188.116 184.08Z" fill="black"/>
</g>
<defs>
<filter id="filter0_d_311_36" x="0" y="0.000244141" width="319" height="313" filterUnits="userSpaceOnUse" color-interpolation-filters="sRGB">
<feFlood flood-opacity="0" result="BackgroundImageFix"/>
<feColorMatrix in="SourceAlpha" type="matrix" values="0 0 0 0 0 0 0 0 0 0 0 0 0 0 0 0 0 0 127 0" result="hardAlpha"/>
<feOffset/>
<feGaussianBlur stdDeviation="17.5"/>
<feComposite in2="hardAlpha" operator="out"/>
<feColorMatrix type="matrix" values="0 0 0 0 0.841667 0 0 0 0 0.841667 0 0 0 0 0.841667 0 0 0 0.49 0"/>
<feBlend mode="normal" in2="BackgroundImageFix" result="effect1_dropShadow_311_36"/>
<feBlend mode="normal" in="SourceGraphic" in2="effect1_dropShadow_311_36" result="shape"/>
</filter>
</defs>
</svg>
