<svg width="319" height="313" viewBox="0 0 319 313" fill="none" xmlns="http://www.w3.org/2000/svg">
<g filter="url(#filter0_d_311_38)">
<rect x="35" y="35.0005" width="249" height="243" rx="30" fill="#F5F5F5" shape-rendering="crispEdges"/>
<path d="M102.758 207L112.719 103.875H147.699L157.484 207H137.973L136.508 190.36H124.086L122.797 207H102.758ZM125.551 173.895H134.926L130.414 121.454H129.477L125.551 173.895ZM179.457 207.938C174.574 207.938 170.844 206.805 168.266 204.54C165.727 202.274 163.988 199.168 163.051 195.223C162.113 191.278 161.645 186.805 161.645 181.805C161.645 176.454 162.172 172.079 163.227 168.68C164.281 165.243 166.078 162.43 168.617 160.243C171.195 158.055 174.73 156.2 179.223 154.676L192.23 150.223V141.2C192.23 136.473 190.688 134.11 187.602 134.11C184.789 134.11 183.383 136.024 183.383 139.852V145.125H162.992C162.953 144.813 162.934 144.422 162.934 143.954C162.934 143.446 162.934 142.879 162.934 142.254C162.934 133.504 164.984 127.313 169.086 123.68C173.227 120.008 179.77 118.172 188.715 118.172C193.402 118.172 197.602 119.012 201.312 120.692C205.023 122.333 207.953 124.774 210.102 128.016C212.289 131.258 213.383 135.262 213.383 140.028V207H192.523V196.571C191.508 200.243 189.828 203.055 187.484 205.008C185.141 206.961 182.465 207.938 179.457 207.938ZM187.719 191.649C189.438 191.649 190.609 190.926 191.234 189.481C191.859 188.036 192.172 186.473 192.172 184.793V160.301C189.281 161.473 187.035 162.958 185.434 164.754C183.832 166.512 183.031 169.11 183.031 172.547V183.856C183.031 189.051 184.594 191.649 187.719 191.649Z" fill="black"/>
</g>
<defs>
<filter id="filter0_d_311_38" x="0" y="0.000488281" width="319" height="313" filterUnits="userSpaceOnUse" color-interpolation-filters="sRGB">
<feFlood flood-opacity="0" result="BackgroundImageFix"/>
<feColorMatrix in="SourceAlpha" type="matrix" values="0 0 0 0 0 0 0 0 0 0 0 0 0 0 0 0 0 0 127 0" result="hardAlpha"/>
<feOffset/>
<feGaussianBlur stdDeviation="17.5"/>
<feComposite in2="hardAlpha" operator="out"/>
<feColorMatrix type="matrix" values="0 0 0 0 0.841667 0 0 0 0 0.841667 0 0 0 0 0.841667 0 0 0 0.49 0"/>
<feBlend mode="normal" in2="BackgroundImageFix" result="effect1_dropShadow_311_38"/>
<feBlend mode="normal" in="SourceGraphic" in2="effect1_dropShadow_311_38" result="shape"/>
</filter>
</defs>
</svg>
