<svg width="319" height="313" viewBox="0 0 319 313" fill="none" xmlns="http://www.w3.org/2000/svg">
<g filter="url(#filter0_d_311_48)">
<rect x="35" y="35.0002" width="249" height="243" rx="30" fill="#F5F5F5" shape-rendering="crispEdges"/>
<path d="M161.289 199H146.055V178.375H92.5V199H77.2656V156.989C77.2656 150.856 78.3203 145.211 80.4297 140.055C82.5391 134.899 85.4688 130.465 89.2188 126.754C92.9688 123.043 97.4023 120.153 102.52 118.082C107.637 116.012 113.223 114.977 119.277 114.977H153.613C154.668 114.977 155.664 115.172 156.602 115.563C157.539 115.953 158.359 116.5 159.062 117.203C159.766 117.906 160.312 118.727 160.703 119.664C161.094 120.602 161.289 121.598 161.289 122.653V199ZM92.5 163.141H146.055V130.211H119.277C118.809 130.211 117.812 130.289 116.289 130.446C114.805 130.563 113.066 130.895 111.074 131.442C109.121 131.989 107.051 132.828 104.863 133.961C102.676 135.094 100.664 136.656 98.8281 138.649C96.9922 140.641 95.4688 143.141 94.2578 146.149C93.0859 149.117 92.5 152.731 92.5 156.989V163.141ZM242.734 178.024C242.734 180.133 242.363 182.418 241.621 184.879C240.879 187.301 239.668 189.567 237.988 191.676C236.348 193.746 234.18 195.485 231.484 196.891C228.828 198.297 225.586 199 221.758 199H194.277C192.168 199 189.883 198.629 187.422 197.887C185 197.145 182.734 195.953 180.625 194.313C178.555 192.633 176.816 190.465 175.41 187.809C174.004 185.114 173.301 181.852 173.301 178.024C173.301 175.914 173.672 173.629 174.414 171.168C175.156 168.707 176.348 166.442 177.988 164.371C179.668 162.262 181.836 160.504 184.492 159.098C187.188 157.692 190.449 156.989 194.277 156.989H221.758V171.52H194.277C192.207 171.52 190.605 172.164 189.473 173.453C188.34 174.703 187.773 176.266 187.773 178.141C187.773 180.133 188.418 181.696 189.707 182.828C191.035 183.922 192.598 184.469 194.395 184.469H221.758C223.828 184.469 225.43 183.844 226.562 182.594C227.695 181.344 228.262 179.781 228.262 177.906V156.637C228.262 154.645 227.637 153.063 226.387 151.891C225.176 150.719 223.633 150.133 221.758 150.133H188.301V135.66H221.758C223.867 135.66 226.133 136.031 228.555 136.774C231.016 137.516 233.281 138.727 235.352 140.406C237.461 142.047 239.219 144.215 240.625 146.91C242.031 149.567 242.734 152.809 242.734 156.637V178.024Z" fill="black"/>
</g>
<defs>
<filter id="filter0_d_311_48" x="0" y="0.000244141" width="319" height="313" filterUnits="userSpaceOnUse" color-interpolation-filters="sRGB">
<feFlood flood-opacity="0" result="BackgroundImageFix"/>
<feColorMatrix in="SourceAlpha" type="matrix" values="0 0 0 0 0 0 0 0 0 0 0 0 0 0 0 0 0 0 127 0" result="hardAlpha"/>
<feOffset/>
<feGaussianBlur stdDeviation="17.5"/>
<feComposite in2="hardAlpha" operator="out"/>
<feColorMatrix type="matrix" values="0 0 0 0 0.841667 0 0 0 0 0.841667 0 0 0 0 0.841667 0 0 0 0.49 0"/>
<feBlend mode="normal" in2="BackgroundImageFix" result="effect1_dropShadow_311_48"/>
<feBlend mode="normal" in="SourceGraphic" in2="effect1_dropShadow_311_48" result="shape"/>
</filter>
</defs>
</svg>
