<svg width="319" height="313" viewBox="0 0 319 313" fill="none" xmlns="http://www.w3.org/2000/svg">
<g filter="url(#filter0_d_311_40)">
<rect x="35" y="35.0005" width="249" height="243" rx="30" fill="#F5F5F5" shape-rendering="crispEdges"/>
<path d="M96.88 200.08C93.76 200.08 91.24 199.32 89.32 197.8C87.4 196.2 86.16 194.16 85.6 191.68L92.68 187.84C92.92 188.88 93.32 189.72 93.88 190.36C94.52 190.92 95.24 191.2 96.04 191.2C96.84 191.2 97.52 190.92 98.08 190.36C98.64 189.72 99.16 188.84 99.64 187.72L129.64 116.44H133.72L168.88 199.12H158.44L147.4 172.6H116.2L107.68 193C106.8 195.16 105.32 196.88 103.24 198.16C101.16 199.44 99.04 200.08 96.88 200.08ZM143.32 163.72L131.8 133.24L131.56 131.44L131.44 133.24L119.8 163.72H143.32ZM201.897 200.2C196.537 200.2 191.897 198.8 187.977 196C184.137 193.12 181.177 189.28 179.097 184.48C177.097 179.68 176.097 174.48 176.097 168.88C176.097 162.8 177.257 157.36 179.577 152.56C181.897 147.76 185.297 143.96 189.777 141.16C194.337 138.36 199.777 136.96 206.097 136.96C207.937 136.96 210.217 137.08 212.937 137.32C215.737 137.48 218.097 137.72 220.017 138.04H228.057V187.84C228.057 188.96 228.297 189.84 228.777 190.48C229.337 191.04 230.137 191.32 231.177 191.32C232.537 191.32 233.617 190.64 234.417 189.28L241.137 193.72C240.097 195.72 238.577 197.32 236.577 198.52C234.657 199.64 232.577 200.2 230.337 200.2C227.377 200.2 224.817 199.36 222.657 197.68C220.577 195.92 219.457 193.88 219.297 191.56V191.68C217.937 194.32 215.657 196.4 212.457 197.92C209.257 199.44 205.737 200.2 201.897 200.2ZM202.617 191.32C205.817 191.32 208.657 190.48 211.137 188.8C213.617 187.12 215.497 185 216.777 182.44C217.497 181.08 217.897 179.92 217.977 178.96C218.137 178 218.217 176.92 218.217 175.72V146.68L213.177 146.32C209.177 146 206.497 145.84 205.137 145.84C199.057 145.84 194.337 148 190.977 152.32C187.617 156.64 185.937 162.12 185.937 168.76C185.937 174.92 187.417 180.24 190.377 184.72C193.337 189.12 197.417 191.32 202.617 191.32Z" fill="black"/>
</g>
<defs>
<filter id="filter0_d_311_40" x="0" y="0.000488281" width="319" height="313" filterUnits="userSpaceOnUse" color-interpolation-filters="sRGB">
<feFlood flood-opacity="0" result="BackgroundImageFix"/>
<feColorMatrix in="SourceAlpha" type="matrix" values="0 0 0 0 0 0 0 0 0 0 0 0 0 0 0 0 0 0 127 0" result="hardAlpha"/>
<feOffset/>
<feGaussianBlur stdDeviation="17.5"/>
<feComposite in2="hardAlpha" operator="out"/>
<feColorMatrix type="matrix" values="0 0 0 0 0.841667 0 0 0 0 0.841667 0 0 0 0 0.841667 0 0 0 0.49 0"/>
<feBlend mode="normal" in2="BackgroundImageFix" result="effect1_dropShadow_311_40"/>
<feBlend mode="normal" in="SourceGraphic" in2="effect1_dropShadow_311_40" result="shape"/>
</filter>
</defs>
</svg>
