<svg width="319" height="313" viewBox="0 0 319 313" fill="none" xmlns="http://www.w3.org/2000/svg">
<g filter="url(#filter0_d_311_42)">
<rect x="35" y="35.0002" width="249" height="243" rx="30" fill="#F5F5F5" shape-rendering="crispEdges"/>
<path d="M120.12 105.12L161.64 191.28H132.84L109.68 135.84L120.12 105.12ZM94.32 183.24C93.6 184.84 93.44 186.2 93.84 187.32C94.24 188.44 94.92 189.32 95.88 189.96C96.92 190.52 97.92 190.8 98.88 190.8H99.96V192H73.2V190.8C73.2 190.8 73.4 190.8 73.8 190.8C74.12 190.8 74.28 190.8 74.28 190.8C76.12 190.8 78 190.24 79.92 189.12C81.92 187.92 83.56 185.96 84.84 183.24H94.32ZM120.12 105.12V123.84L90.6 191.64H80.88L112.2 123C112.6 122.28 113.12 121.16 113.76 119.64C114.48 118.04 115.2 116.32 115.92 114.48C116.72 112.64 117.4 110.88 117.96 109.2C118.6 107.52 118.96 106.16 119.04 105.12H120.12ZM129.96 166.08V172.08H96V166.08H129.96ZM129.36 183.24H157.68C159.04 185.96 160.68 187.92 162.6 189.12C164.52 190.24 166.4 190.8 168.24 190.8C168.24 190.8 168.4 190.8 168.72 190.8C169.04 190.8 169.2 190.8 169.2 190.8V192H123.72V190.8H124.8C126.4 190.8 127.8 190.16 129 188.88C130.28 187.52 130.4 185.64 129.36 183.24ZM201.327 115.68L238.527 191.4H211.287L191.007 145.08L201.327 115.68ZM179.127 184.68C178.247 186.68 178.367 188.2 179.487 189.24C180.607 190.28 181.847 190.8 183.207 190.8H184.047V192H159.327V190.8C159.327 190.8 159.487 190.8 159.807 190.8C160.127 190.8 160.287 190.8 160.287 190.8C161.887 190.8 163.567 190.36 165.327 189.48C167.087 188.52 168.487 186.92 169.527 184.68H179.127ZM201.327 115.68L201.207 134.04L176.007 191.64H166.287L194.127 131.64C194.447 130.84 194.927 129.76 195.567 128.4C196.207 126.96 196.847 125.44 197.487 123.84C198.207 122.16 198.847 120.6 199.407 119.16C199.967 117.72 200.287 116.56 200.367 115.68H201.327ZM209.367 171.36V176.76H179.487V171.36H209.367ZM208.287 184.68H235.167C236.287 186.92 237.727 188.52 239.487 189.48C241.247 190.36 242.927 190.8 244.527 190.8C244.527 190.8 244.687 190.8 245.007 190.8C245.327 190.8 245.487 190.8 245.487 190.8V192H203.247V190.8H204.207C205.567 190.8 206.807 190.28 207.927 189.24C209.047 188.2 209.167 186.68 208.287 184.68Z" fill="black"/>
</g>
<defs>
<filter id="filter0_d_311_42" x="0" y="0.000244141" width="319" height="313" filterUnits="userSpaceOnUse" color-interpolation-filters="sRGB">
<feFlood flood-opacity="0" result="BackgroundImageFix"/>
<feColorMatrix in="SourceAlpha" type="matrix" values="0 0 0 0 0 0 0 0 0 0 0 0 0 0 0 0 0 0 127 0" result="hardAlpha"/>
<feOffset/>
<feGaussianBlur stdDeviation="17.5"/>
<feComposite in2="hardAlpha" operator="out"/>
<feColorMatrix type="matrix" values="0 0 0 0 0.841667 0 0 0 0 0.841667 0 0 0 0 0.841667 0 0 0 0.49 0"/>
<feBlend mode="normal" in2="BackgroundImageFix" result="effect1_dropShadow_311_42"/>
<feBlend mode="normal" in="SourceGraphic" in2="effect1_dropShadow_311_42" result="shape"/>
</filter>
</defs>
</svg>
