<svg width="319" height="313" viewBox="0 0 319 313" fill="none" xmlns="http://www.w3.org/2000/svg">
<g filter="url(#filter0_d_311_44)">
<rect x="35" y="35.0002" width="249" height="243" rx="30" fill="#F5F5F5" shape-rendering="crispEdges"/>
<path d="M120.703 111.219C120.703 111.844 120.586 112.352 120.352 112.742C120.117 113.133 119.922 113.641 119.766 114.266H117.891C117.422 113.953 116.992 113.758 116.602 113.68C116.211 113.602 116.016 113.211 116.016 112.508C116.016 112.196 116.055 111.922 116.133 111.688C116.211 111.375 116.25 111.102 116.25 110.867C116.719 110.164 117.383 109.813 118.242 109.813C118.555 109.813 119.023 109.891 119.648 110.047C119.805 110.36 119.922 110.594 120 110.75C120.078 110.906 120.312 111.063 120.703 111.219ZM127.266 122.586C127.109 122.899 126.836 123.289 126.445 123.758C126.055 124.149 125.82 124.461 125.742 124.696L125.156 124.93C124.531 124.93 124.023 124.813 123.633 124.578C123.242 124.344 122.773 124.031 122.227 123.641C122.383 123.016 122.539 122.352 122.695 121.649C122.93 120.867 123.477 120.477 124.336 120.477C125.117 120.477 125.742 120.633 126.211 120.946C126.758 121.18 127.109 121.727 127.266 122.586ZM132.656 137.703L131.25 139.344C130.781 139.5 130.469 139.578 130.312 139.578C129.922 139.578 129.531 139.5 129.141 139.344C128.828 139.188 128.477 139.031 128.086 138.875C128.008 138.641 127.93 138.406 127.852 138.172C127.773 137.938 127.734 137.664 127.734 137.352C127.734 137.274 127.812 137 127.969 136.531C128.75 135.75 129.766 135.36 131.016 135.36C131.641 135.985 132.188 136.766 132.656 137.703ZM115.078 124.813C115.078 125.438 114.805 125.985 114.258 126.453C113.711 126.844 113.125 127.039 112.5 127.039C112.188 127.039 111.875 126.961 111.562 126.805C111.406 126.883 111.25 126.961 111.094 127.039C110.938 127.039 110.781 127.078 110.625 127.156C110.547 126.688 110.43 126.219 110.273 125.75C110.195 125.203 110.156 124.696 110.156 124.227C110.156 123.758 110.273 123.446 110.508 123.289C110.82 123.055 111.133 122.742 111.445 122.352C111.836 122.352 112.266 122.391 112.734 122.469C113.203 122.469 113.633 122.469 114.023 122.469C114.18 122.86 114.375 123.25 114.609 123.641C114.922 123.953 115.078 124.344 115.078 124.813ZM138.164 150.242C138.164 150.555 138.086 150.867 137.93 151.18C137.852 151.492 137.812 151.805 137.812 152.117C137.422 152.196 137.07 152.352 136.758 152.586C136.445 152.742 136.094 152.821 135.703 152.821C135.312 152.821 134.922 152.703 134.531 152.469C134.141 152.156 133.75 151.961 133.359 151.883C133.359 151.727 133.398 151.61 133.477 151.531C133.555 151.375 133.594 151.219 133.594 151.063C133.594 150.906 133.555 150.75 133.477 150.594C133.398 150.36 133.32 150.164 133.242 150.008C133.633 149.539 134.062 149.11 134.531 148.719C135 148.25 135.547 148.016 136.172 148.016C136.719 148.016 137.188 148.25 137.578 148.719C137.969 149.188 138.164 149.696 138.164 150.242ZM141.797 163.367C141.797 164.383 141.484 164.969 140.859 165.125C140.312 165.203 139.688 165.438 138.984 165.828C138.672 165.516 138.359 165.281 138.047 165.125C137.734 164.969 137.461 164.696 137.227 164.305C137.148 163.914 137.07 163.524 136.992 163.133C136.914 162.664 136.797 162.235 136.641 161.844C137.109 161.61 137.578 161.414 138.047 161.258C138.594 161.024 139.18 160.906 139.805 160.906C140.586 160.906 141.094 161.141 141.328 161.61C141.641 162.078 141.797 162.664 141.797 163.367ZM146.836 172.742C146.836 173.367 146.719 174.031 146.484 174.735C146.094 174.891 145.703 175.047 145.312 175.203C144.922 175.281 144.531 175.321 144.141 175.321C142.812 175.321 142.148 174.656 142.148 173.328C142.148 173.094 142.148 172.899 142.148 172.742C142.227 172.508 142.266 172.313 142.266 172.156L143.438 170.75C143.828 170.906 144.18 170.985 144.492 170.985C144.883 170.985 145.273 171.024 145.664 171.102C146.211 171.649 146.602 172.196 146.836 172.742ZM108.867 137.821C108.398 138.289 107.852 138.719 107.227 139.11C106.68 139.5 106.055 139.696 105.352 139.696C104.961 139.696 104.531 139.461 104.062 138.992C103.828 138.446 103.711 137.86 103.711 137.235C103.711 137 103.75 136.766 103.828 136.531C103.906 136.297 103.945 136.063 103.945 135.828C104.258 135.672 104.531 135.516 104.766 135.36C105.078 135.125 105.43 135.008 105.82 135.008C106.133 135.008 106.406 135.125 106.641 135.36C106.953 135.36 107.227 135.399 107.461 135.477C107.695 135.555 107.93 135.594 108.164 135.594C108.32 136.063 108.398 136.453 108.398 136.766C108.477 137.078 108.633 137.43 108.867 137.821ZM130.312 165.711C130.312 166.492 129.961 167.117 129.258 167.586C128.633 167.664 127.891 167.899 127.031 168.289L125.156 167C125.312 166.688 125.352 166.414 125.273 166.18C125.273 165.867 125.273 165.516 125.273 165.125C125.664 164.422 125.977 163.953 126.211 163.719C126.445 163.485 126.641 163.367 126.797 163.367C127.031 163.289 127.227 163.25 127.383 163.25C127.617 163.172 127.852 163.016 128.086 162.781L129.844 163.719V164.305C129.844 164.539 129.922 164.774 130.078 165.008C130.234 165.164 130.312 165.399 130.312 165.711ZM150.352 185.399C150.117 186.258 149.727 186.922 149.18 187.391C148.711 187.781 148.047 188.094 147.188 188.328C146.797 187.938 146.406 187.625 146.016 187.391C145.703 187.078 145.391 186.727 145.078 186.336C145.156 186.024 145.234 185.75 145.312 185.516C145.391 185.203 145.43 184.852 145.43 184.461C145.82 184.305 146.094 184.11 146.25 183.875C146.406 183.641 146.641 183.406 146.953 183.172C147.422 183.328 147.891 183.446 148.359 183.524C148.828 183.602 149.297 183.758 149.766 183.992C149.766 184.383 149.805 184.656 149.883 184.813L150.352 185.399ZM154.453 197.235C154.297 197.547 154.062 197.821 153.75 198.055C153.516 198.289 153.281 198.485 153.047 198.641C152.422 198.485 151.875 198.406 151.406 198.406C150.938 198.406 150.508 198.367 150.117 198.289C150.039 197.899 149.922 197.508 149.766 197.117C149.688 196.727 149.648 196.336 149.648 195.946C149.648 195.477 149.922 195.086 150.469 194.774C151.016 194.461 151.523 194.305 151.992 194.305C152.617 194.305 153.281 194.422 153.984 194.656C154.141 195.047 154.219 195.477 154.219 195.946C154.297 196.336 154.375 196.766 154.453 197.235ZM120.117 165.008C120.117 165.399 120.078 165.75 120 166.063C120 166.375 120 166.727 120 167.117L119.414 167.469C118.555 167.781 117.617 167.938 116.602 167.938C115.977 167.313 115.664 166.805 115.664 166.414C115.664 165.946 115.586 165.321 115.43 164.539C116.289 163.68 117.227 163.25 118.242 163.25H119.062C119.219 163.563 119.375 163.875 119.531 164.188C119.688 164.5 119.883 164.774 120.117 165.008ZM102.656 152.469C102.266 152.703 101.836 152.977 101.367 153.289C100.977 153.524 100.547 153.641 100.078 153.641C99.4531 153.25 98.9453 152.899 98.5547 152.586C98.1641 152.274 97.9688 151.766 97.9688 151.063L97.7344 150.36C98.5938 149.813 99.1797 149.539 99.4922 149.539C99.8828 149.539 100.508 149.5 101.367 149.422L101.836 149.656C102.227 150.047 102.422 150.516 102.422 151.063C102.422 151.531 102.5 152 102.656 152.469ZM109.922 166.063L108.633 167.703C108.32 167.86 108.008 167.938 107.695 167.938C107.383 167.938 107.07 167.899 106.758 167.821C106.523 167.742 106.25 167.664 105.938 167.586C105.781 167.274 105.664 167 105.586 166.766C105.508 166.453 105.273 166.219 104.883 166.063C105.039 165.36 105.273 164.852 105.586 164.539C105.898 164.149 106.328 163.719 106.875 163.25C107.266 163.406 107.656 163.485 108.047 163.485C108.438 163.485 108.828 163.524 109.219 163.602C109.375 163.992 109.453 164.422 109.453 164.891C109.531 165.281 109.688 165.672 109.922 166.063ZM97.6172 164.071C97.3047 164.539 96.9922 165.008 96.6797 165.477C96.3672 165.946 95.8984 166.18 95.2734 166.18C94.7266 166.18 94.1406 165.946 93.5156 165.477C92.9688 165.008 92.6953 164.5 92.6953 163.953C92.6953 163.485 92.8906 162.977 93.2812 162.43C93.6719 161.805 94.1406 161.492 94.6875 161.492C95.0781 161.492 95.3906 161.571 95.625 161.727C95.9375 161.883 96.2891 162 96.6797 162.078C96.9922 162.391 97.1484 162.703 97.1484 163.016C97.2266 163.328 97.3828 163.68 97.6172 164.071ZM92.4609 175.321C92.4609 176.024 92.1484 176.61 91.5234 177.078C90.8984 177.469 90.2734 177.742 89.6484 177.899C89.1016 177.43 88.4375 177.078 87.6562 176.844C87.6562 176.531 87.6172 176.297 87.5391 176.141C87.4609 175.906 87.4219 175.633 87.4219 175.321C87.4219 174.93 87.5781 174.539 87.8906 174.149C88.2031 173.758 88.4766 173.446 88.7109 173.211C89.8047 173.211 90.7812 173.367 91.6406 173.68C91.7969 173.992 91.9141 174.266 91.9922 174.5C92.0703 174.735 92.1875 175.008 92.3438 175.321H92.4609ZM87.5391 187.274C87.5391 187.742 87.3047 188.211 86.8359 188.68C86.3672 189.071 85.8984 189.266 85.4297 189.266C85.1172 189.266 84.8047 189.11 84.4922 188.797C84.1016 188.641 83.75 188.406 83.4375 188.094C83.125 187.781 82.9688 187.43 82.9688 187.039V186.219C83.2031 185.985 83.3984 185.828 83.5547 185.75C83.7891 185.594 83.9453 185.321 84.0234 184.93H85.0781C85.4688 184.93 85.8203 185.008 86.1328 185.164C86.4453 185.242 86.7578 185.36 87.0703 185.516C87.3828 186.297 87.5391 186.883 87.5391 187.274ZM84.1406 196.414C84.1406 196.649 84.0625 197 83.9062 197.469C83.6719 197.703 83.4375 197.821 83.2031 197.821C82.9688 197.821 82.8516 198.016 82.8516 198.406H81.5625C80.9375 198.406 80.3516 198.211 79.8047 197.821C79.3359 197.43 79.1016 196.922 79.1016 196.297C79.1016 195.36 79.5703 194.5 80.5078 193.719C80.6641 193.797 80.8594 193.875 81.0938 193.953C81.3281 194.031 81.5234 194.071 81.6797 194.071C81.8359 194.071 81.9531 194.071 82.0312 194.071C82.1094 193.992 82.2266 193.953 82.3828 193.953C82.7734 193.953 83.0859 194.071 83.3203 194.305C83.5547 194.461 83.7891 194.617 84.0234 194.774C84.0234 195.086 84.0234 195.399 84.0234 195.711C84.1016 195.946 84.1406 196.18 84.1406 196.414ZM204.375 111.219C204.375 111.844 204.258 112.352 204.023 112.742C203.789 113.133 203.594 113.641 203.438 114.266H201.562C201.094 113.953 200.664 113.758 200.273 113.68C199.883 113.602 199.688 113.211 199.688 112.508C199.688 112.196 199.727 111.922 199.805 111.688C199.883 111.375 199.922 111.102 199.922 110.867C200.391 110.164 201.055 109.813 201.914 109.813C202.227 109.813 202.695 109.891 203.32 110.047C203.477 110.36 203.594 110.594 203.672 110.75C203.75 110.906 203.984 111.063 204.375 111.219ZM210.938 122.586C210.781 122.899 210.508 123.289 210.117 123.758C209.727 124.149 209.492 124.461 209.414 124.696L208.828 124.93C208.203 124.93 207.695 124.813 207.305 124.578C206.914 124.344 206.445 124.031 205.898 123.641C206.055 123.016 206.211 122.352 206.367 121.649C206.602 120.867 207.148 120.477 208.008 120.477C208.789 120.477 209.414 120.633 209.883 120.946C210.43 121.18 210.781 121.727 210.938 122.586ZM216.328 137.703L214.922 139.344C214.453 139.5 214.141 139.578 213.984 139.578C213.594 139.578 213.203 139.5 212.812 139.344C212.5 139.188 212.148 139.031 211.758 138.875C211.68 138.641 211.602 138.406 211.523 138.172C211.445 137.938 211.406 137.664 211.406 137.352C211.406 137.274 211.484 137 211.641 136.531C212.422 135.75 213.438 135.36 214.688 135.36C215.312 135.985 215.859 136.766 216.328 137.703ZM198.75 124.813C198.75 125.438 198.477 125.985 197.93 126.453C197.383 126.844 196.797 127.039 196.172 127.039C195.859 127.039 195.547 126.961 195.234 126.805C195.078 126.883 194.922 126.961 194.766 127.039C194.609 127.039 194.453 127.078 194.297 127.156C194.219 126.688 194.102 126.219 193.945 125.75C193.867 125.203 193.828 124.696 193.828 124.227C193.828 123.758 193.945 123.446 194.18 123.289C194.492 123.055 194.805 122.742 195.117 122.352C195.508 122.352 195.938 122.391 196.406 122.469C196.875 122.469 197.305 122.469 197.695 122.469C197.852 122.86 198.047 123.25 198.281 123.641C198.594 123.953 198.75 124.344 198.75 124.813ZM221.836 150.242C221.836 150.555 221.758 150.867 221.602 151.18C221.523 151.492 221.484 151.805 221.484 152.117C221.094 152.196 220.742 152.352 220.43 152.586C220.117 152.742 219.766 152.821 219.375 152.821C218.984 152.821 218.594 152.703 218.203 152.469C217.812 152.156 217.422 151.961 217.031 151.883C217.031 151.727 217.07 151.61 217.148 151.531C217.227 151.375 217.266 151.219 217.266 151.063C217.266 150.906 217.227 150.75 217.148 150.594C217.07 150.36 216.992 150.164 216.914 150.008C217.305 149.539 217.734 149.11 218.203 148.719C218.672 148.25 219.219 148.016 219.844 148.016C220.391 148.016 220.859 148.25 221.25 148.719C221.641 149.188 221.836 149.696 221.836 150.242ZM225.469 163.367C225.469 164.383 225.156 164.969 224.531 165.125C223.984 165.203 223.359 165.438 222.656 165.828C222.344 165.516 222.031 165.281 221.719 165.125C221.406 164.969 221.133 164.696 220.898 164.305C220.82 163.914 220.742 163.524 220.664 163.133C220.586 162.664 220.469 162.235 220.312 161.844C220.781 161.61 221.25 161.414 221.719 161.258C222.266 161.024 222.852 160.906 223.477 160.906C224.258 160.906 224.766 161.141 225 161.61C225.312 162.078 225.469 162.664 225.469 163.367ZM230.508 172.742C230.508 173.367 230.391 174.031 230.156 174.735C229.766 174.891 229.375 175.047 228.984 175.203C228.594 175.281 228.203 175.321 227.812 175.321C226.484 175.321 225.82 174.656 225.82 173.328C225.82 173.094 225.82 172.899 225.82 172.742C225.898 172.508 225.938 172.313 225.938 172.156L227.109 170.75C227.5 170.906 227.852 170.985 228.164 170.985C228.555 170.985 228.945 171.024 229.336 171.102C229.883 171.649 230.273 172.196 230.508 172.742ZM192.539 137.821C192.07 138.289 191.523 138.719 190.898 139.11C190.352 139.5 189.727 139.696 189.023 139.696C188.633 139.696 188.203 139.461 187.734 138.992C187.5 138.446 187.383 137.86 187.383 137.235C187.383 137 187.422 136.766 187.5 136.531C187.578 136.297 187.617 136.063 187.617 135.828C187.93 135.672 188.203 135.516 188.438 135.36C188.75 135.125 189.102 135.008 189.492 135.008C189.805 135.008 190.078 135.125 190.312 135.36C190.625 135.36 190.898 135.399 191.133 135.477C191.367 135.555 191.602 135.594 191.836 135.594C191.992 136.063 192.07 136.453 192.07 136.766C192.148 137.078 192.305 137.43 192.539 137.821ZM213.984 165.711C213.984 166.492 213.633 167.117 212.93 167.586C212.305 167.664 211.562 167.899 210.703 168.289L208.828 167C208.984 166.688 209.023 166.414 208.945 166.18C208.945 165.867 208.945 165.516 208.945 165.125C209.336 164.422 209.648 163.953 209.883 163.719C210.117 163.485 210.312 163.367 210.469 163.367C210.703 163.289 210.898 163.25 211.055 163.25C211.289 163.172 211.523 163.016 211.758 162.781L213.516 163.719V164.305C213.516 164.539 213.594 164.774 213.75 165.008C213.906 165.164 213.984 165.399 213.984 165.711ZM234.023 185.399C233.789 186.258 233.398 186.922 232.852 187.391C232.383 187.781 231.719 188.094 230.859 188.328C230.469 187.938 230.078 187.625 229.688 187.391C229.375 187.078 229.062 186.727 228.75 186.336C228.828 186.024 228.906 185.75 228.984 185.516C229.062 185.203 229.102 184.852 229.102 184.461C229.492 184.305 229.766 184.11 229.922 183.875C230.078 183.641 230.312 183.406 230.625 183.172C231.094 183.328 231.562 183.446 232.031 183.524C232.5 183.602 232.969 183.758 233.438 183.992C233.438 184.383 233.477 184.656 233.555 184.813L234.023 185.399ZM238.125 197.235C237.969 197.547 237.734 197.821 237.422 198.055C237.188 198.289 236.953 198.485 236.719 198.641C236.094 198.485 235.547 198.406 235.078 198.406C234.609 198.406 234.18 198.367 233.789 198.289C233.711 197.899 233.594 197.508 233.438 197.117C233.359 196.727 233.32 196.336 233.32 195.946C233.32 195.477 233.594 195.086 234.141 194.774C234.688 194.461 235.195 194.305 235.664 194.305C236.289 194.305 236.953 194.422 237.656 194.656C237.812 195.047 237.891 195.477 237.891 195.946C237.969 196.336 238.047 196.766 238.125 197.235ZM203.789 165.008C203.789 165.399 203.75 165.75 203.672 166.063C203.672 166.375 203.672 166.727 203.672 167.117L203.086 167.469C202.227 167.781 201.289 167.938 200.273 167.938C199.648 167.313 199.336 166.805 199.336 166.414C199.336 165.946 199.258 165.321 199.102 164.539C199.961 163.68 200.898 163.25 201.914 163.25H202.734C202.891 163.563 203.047 163.875 203.203 164.188C203.359 164.5 203.555 164.774 203.789 165.008ZM186.328 152.469C185.938 152.703 185.508 152.977 185.039 153.289C184.648 153.524 184.219 153.641 183.75 153.641C183.125 153.25 182.617 152.899 182.227 152.586C181.836 152.274 181.641 151.766 181.641 151.063L181.406 150.36C182.266 149.813 182.852 149.539 183.164 149.539C183.555 149.539 184.18 149.5 185.039 149.422L185.508 149.656C185.898 150.047 186.094 150.516 186.094 151.063C186.094 151.531 186.172 152 186.328 152.469ZM193.594 166.063L192.305 167.703C191.992 167.86 191.68 167.938 191.367 167.938C191.055 167.938 190.742 167.899 190.43 167.821C190.195 167.742 189.922 167.664 189.609 167.586C189.453 167.274 189.336 167 189.258 166.766C189.18 166.453 188.945 166.219 188.555 166.063C188.711 165.36 188.945 164.852 189.258 164.539C189.57 164.149 190 163.719 190.547 163.25C190.938 163.406 191.328 163.485 191.719 163.485C192.109 163.485 192.5 163.524 192.891 163.602C193.047 163.992 193.125 164.422 193.125 164.891C193.203 165.281 193.359 165.672 193.594 166.063ZM181.289 164.071C180.977 164.539 180.664 165.008 180.352 165.477C180.039 165.946 179.57 166.18 178.945 166.18C178.398 166.18 177.812 165.946 177.188 165.477C176.641 165.008 176.367 164.5 176.367 163.953C176.367 163.485 176.562 162.977 176.953 162.43C177.344 161.805 177.812 161.492 178.359 161.492C178.75 161.492 179.062 161.571 179.297 161.727C179.609 161.883 179.961 162 180.352 162.078C180.664 162.391 180.82 162.703 180.82 163.016C180.898 163.328 181.055 163.68 181.289 164.071ZM176.133 175.321C176.133 176.024 175.82 176.61 175.195 177.078C174.57 177.469 173.945 177.742 173.32 177.899C172.773 177.43 172.109 177.078 171.328 176.844C171.328 176.531 171.289 176.297 171.211 176.141C171.133 175.906 171.094 175.633 171.094 175.321C171.094 174.93 171.25 174.539 171.562 174.149C171.875 173.758 172.148 173.446 172.383 173.211C173.477 173.211 174.453 173.367 175.312 173.68C175.469 173.992 175.586 174.266 175.664 174.5C175.742 174.735 175.859 175.008 176.016 175.321H176.133ZM171.211 187.274C171.211 187.742 170.977 188.211 170.508 188.68C170.039 189.071 169.57 189.266 169.102 189.266C168.789 189.266 168.477 189.11 168.164 188.797C167.773 188.641 167.422 188.406 167.109 188.094C166.797 187.781 166.641 187.43 166.641 187.039V186.219C166.875 185.985 167.07 185.828 167.227 185.75C167.461 185.594 167.617 185.321 167.695 184.93H168.75C169.141 184.93 169.492 185.008 169.805 185.164C170.117 185.242 170.43 185.36 170.742 185.516C171.055 186.297 171.211 186.883 171.211 187.274ZM167.812 196.414C167.812 196.649 167.734 197 167.578 197.469C167.344 197.703 167.109 197.821 166.875 197.821C166.641 197.821 166.523 198.016 166.523 198.406H165.234C164.609 198.406 164.023 198.211 163.477 197.821C163.008 197.43 162.773 196.922 162.773 196.297C162.773 195.36 163.242 194.5 164.18 193.719C164.336 193.797 164.531 193.875 164.766 193.953C165 194.031 165.195 194.071 165.352 194.071C165.508 194.071 165.625 194.071 165.703 194.071C165.781 193.992 165.898 193.953 166.055 193.953C166.445 193.953 166.758 194.071 166.992 194.305C167.227 194.461 167.461 194.617 167.695 194.774C167.695 195.086 167.695 195.399 167.695 195.711C167.773 195.946 167.812 196.18 167.812 196.414Z" fill="black"/>
</g>
<defs>
<filter id="filter0_d_311_44" x="0" y="0.000244141" width="319" height="313" filterUnits="userSpaceOnUse" color-interpolation-filters="sRGB">
<feFlood flood-opacity="0" result="BackgroundImageFix"/>
<feColorMatrix in="SourceAlpha" type="matrix" values="0 0 0 0 0 0 0 0 0 0 0 0 0 0 0 0 0 0 127 0" result="hardAlpha"/>
<feOffset/>
<feGaussianBlur stdDeviation="17.5"/>
<feComposite in2="hardAlpha" operator="out"/>
<feColorMatrix type="matrix" values="0 0 0 0 0.841667 0 0 0 0 0.841667 0 0 0 0 0.841667 0 0 0 0.49 0"/>
<feBlend mode="normal" in2="BackgroundImageFix" result="effect1_dropShadow_311_44"/>
<feBlend mode="normal" in="SourceGraphic" in2="effect1_dropShadow_311_44" result="shape"/>
</filter>
</defs>
</svg>
