<svg width="319" height="313" viewBox="0 0 319 313" fill="none" xmlns="http://www.w3.org/2000/svg">
<g filter="url(#filter0_d_311_46)">
<rect x="35" y="35.0002" width="249" height="243" rx="30" fill="#F5F5F5" shape-rendering="crispEdges"/>
<path d="M90.96 197L117.24 113H128.88L155.04 197H144L137.88 176.12H108.12L102 197H90.96ZM122.76 127.16L110.64 167.72H135.36L123.24 127.16H122.76ZM189.913 198.44C185.193 198.44 181.273 197.6 178.153 195.92C175.033 194.24 172.713 192.04 171.193 189.32C169.673 186.52 168.913 183.48 168.913 180.2C168.913 174.12 171.113 169.52 175.513 166.4C179.993 163.2 185.953 161.6 193.393 161.6H209.713V160.4C209.713 150 204.953 144.8 195.433 144.8C191.593 144.8 188.353 145.64 185.713 147.32C183.153 149 181.513 151.64 180.793 155.24H170.473C170.873 151.24 172.193 147.8 174.433 144.92C176.753 142.04 179.713 139.84 183.313 138.32C186.913 136.8 190.953 136.04 195.433 136.04C203.913 136.04 210.073 138.28 213.913 142.76C217.833 147.16 219.793 153.04 219.793 160.4V197H211.153L210.313 187.76H209.473C207.713 190.64 205.353 193.16 202.393 195.32C199.513 197.4 195.353 198.44 189.913 198.44ZM191.713 189.56C195.553 189.56 198.793 188.64 201.433 186.8C204.153 184.96 206.193 182.52 207.553 179.48C208.993 176.44 209.713 173.12 209.713 169.52H194.233C188.793 169.52 184.953 170.44 182.713 172.28C180.553 174.12 179.473 176.56 179.473 179.6C179.473 182.72 180.513 185.16 182.593 186.92C184.673 188.68 187.713 189.56 191.713 189.56Z" fill="black"/>
</g>
<defs>
<filter id="filter0_d_311_46" x="0" y="0.000244141" width="319" height="313" filterUnits="userSpaceOnUse" color-interpolation-filters="sRGB">
<feFlood flood-opacity="0" result="BackgroundImageFix"/>
<feColorMatrix in="SourceAlpha" type="matrix" values="0 0 0 0 0 0 0 0 0 0 0 0 0 0 0 0 0 0 127 0" result="hardAlpha"/>
<feOffset/>
<feGaussianBlur stdDeviation="17.5"/>
<feComposite in2="hardAlpha" operator="out"/>
<feColorMatrix type="matrix" values="0 0 0 0 0.841667 0 0 0 0 0.841667 0 0 0 0 0.841667 0 0 0 0.49 0"/>
<feBlend mode="normal" in2="BackgroundImageFix" result="effect1_dropShadow_311_46"/>
<feBlend mode="normal" in="SourceGraphic" in2="effect1_dropShadow_311_46" result="shape"/>
</filter>
</defs>
</svg>
