<svg width="319" height="313" viewBox="0 0 319 313" fill="none" xmlns="http://www.w3.org/2000/svg">
<g filter="url(#filter0_d_313_67)">
<rect x="35" y="35" width="249" height="243" rx="30" fill="#F5F5F5" shape-rendering="crispEdges"/>
<path d="M148.96 192H155.68L123.16 108H116.44L83.8 192H90.52L98.68 170.64H140.8L148.96 192ZM101.08 164.64L119.8 115.8L138.52 164.64H101.08ZM218.337 132V145.56C213.297 136.56 204.057 130.68 192.537 130.68C175.497 130.68 161.457 144.24 161.457 162C161.457 179.76 175.497 193.32 192.537 193.32C204.057 193.32 213.297 187.44 218.337 178.44V192H224.457V132H218.337ZM193.017 187.56C178.737 187.56 167.577 176.28 167.577 162C167.577 147.72 178.737 136.44 193.017 136.44C207.297 136.44 218.337 147.72 218.337 162C218.337 176.28 207.297 187.56 193.017 187.56Z" fill="black"/>
</g>
<defs>
<filter id="filter0_d_313_67" x="0" y="0" width="319" height="313" filterUnits="userSpaceOnUse" color-interpolation-filters="sRGB">
<feFlood flood-opacity="0" result="BackgroundImageFix"/>
<feColorMatrix in="SourceAlpha" type="matrix" values="0 0 0 0 0 0 0 0 0 0 0 0 0 0 0 0 0 0 127 0" result="hardAlpha"/>
<feOffset/>
<feGaussianBlur stdDeviation="17.5"/>
<feComposite in2="hardAlpha" operator="out"/>
<feColorMatrix type="matrix" values="0 0 0 0 0.841667 0 0 0 0 0.841667 0 0 0 0 0.841667 0 0 0 0.49 0"/>
<feBlend mode="normal" in2="BackgroundImageFix" result="effect1_dropShadow_313_67"/>
<feBlend mode="normal" in="SourceGraphic" in2="effect1_dropShadow_313_67" result="shape"/>
</filter>
</defs>
</svg>
