<svg width="319" height="313" viewBox="0 0 319 313" fill="none" xmlns="http://www.w3.org/2000/svg">
<g filter="url(#filter0_d_311_52)">
<rect x="35" y="35.0002" width="249" height="243" rx="30" fill="#F5F5F5" shape-rendering="crispEdges"/>
<path d="M81.24 199L119.64 115H128.4L166.8 199H157.44L122.16 120.16H125.76L90.48 199H81.24ZM96.36 176.56L99 169.36H147.84L150.48 176.56H96.36ZM218.376 199V185.08L218.016 182.8V159.52C218.016 154.16 216.496 150.04 213.456 147.16C210.496 144.28 206.056 142.84 200.136 142.84C196.056 142.84 192.176 143.52 188.496 144.88C184.816 146.24 181.696 148.04 179.136 150.28L175.296 143.92C178.496 141.2 182.336 139.12 186.816 137.68C191.296 136.16 196.016 135.4 200.976 135.4C209.136 135.4 215.416 137.44 219.816 141.52C224.296 145.52 226.536 151.64 226.536 159.88V199H218.376ZM196.656 199.6C191.936 199.6 187.816 198.84 184.296 197.32C180.856 195.72 178.216 193.56 176.376 190.84C174.536 188.04 173.616 184.84 173.616 181.24C173.616 177.96 174.376 175 175.896 172.36C177.496 169.64 180.056 167.48 183.576 165.88C187.176 164.2 191.976 163.36 197.976 163.36H219.696V169.72H198.216C192.136 169.72 187.896 170.8 185.496 172.96C183.176 175.12 182.016 177.8 182.016 181C182.016 184.6 183.416 187.48 186.216 189.64C189.016 191.8 192.936 192.88 197.976 192.88C202.776 192.88 206.896 191.8 210.336 189.64C213.856 187.4 216.416 184.2 218.016 180.04L219.936 185.92C218.336 190.08 215.536 193.4 211.536 195.88C207.616 198.36 202.656 199.6 196.656 199.6Z" fill="black"/>
</g>
<defs>
<filter id="filter0_d_311_52" x="0" y="0.000244141" width="319" height="313" filterUnits="userSpaceOnUse" color-interpolation-filters="sRGB">
<feFlood flood-opacity="0" result="BackgroundImageFix"/>
<feColorMatrix in="SourceAlpha" type="matrix" values="0 0 0 0 0 0 0 0 0 0 0 0 0 0 0 0 0 0 127 0" result="hardAlpha"/>
<feOffset/>
<feGaussianBlur stdDeviation="17.5"/>
<feComposite in2="hardAlpha" operator="out"/>
<feColorMatrix type="matrix" values="0 0 0 0 0.841667 0 0 0 0 0.841667 0 0 0 0 0.841667 0 0 0 0.49 0"/>
<feBlend mode="normal" in2="BackgroundImageFix" result="effect1_dropShadow_311_52"/>
<feBlend mode="normal" in="SourceGraphic" in2="effect1_dropShadow_311_52" result="shape"/>
</filter>
</defs>
</svg>
