<svg width="321" height="468" viewBox="0 0 321 468" fill="none" xmlns="http://www.w3.org/2000/svg">
<g filter="url(#filter0_d_178_36)">
<rect x="35" y="23" width="251" height="398" rx="30" fill="white"/>
<rect x="35.5" y="23.5" width="250" height="397" rx="29.5" stroke="black" stroke-dasharray="20 30"/>
</g>
<path d="M104.799 274.301H98.1709L96.9258 278H92.9951L99.416 260.007H103.664L110.036 278H105.959L104.799 274.301ZM103.75 271.201L101.503 264.121L99.1841 271.201H103.75ZM118.74 267.905C117.34 267.905 116.4 268.361 115.92 269.272C115.651 269.785 115.517 270.574 115.517 271.64V278H112.014V264.694H115.334V267.014C115.871 266.127 116.339 265.52 116.738 265.195C117.389 264.65 118.235 264.377 119.277 264.377C119.342 264.377 119.395 264.381 119.436 264.389C119.484 264.389 119.586 264.393 119.741 264.401V267.966C119.521 267.941 119.326 267.925 119.155 267.917C118.984 267.909 118.846 267.905 118.74 267.905ZM133.999 278H129.799L126.613 272.312L125.173 273.813V278H121.755V260.068H125.173V269.76L129.506 264.755H133.815L129.165 269.846L133.999 278ZM136.208 266.135C137.128 264.963 138.706 264.377 140.944 264.377C142.401 264.377 143.695 264.666 144.826 265.244C145.957 265.821 146.523 266.912 146.523 268.515V274.619C146.523 275.042 146.531 275.555 146.547 276.157C146.572 276.612 146.641 276.922 146.755 277.084C146.869 277.247 147.04 277.382 147.268 277.487V278H143.483C143.378 277.731 143.304 277.479 143.264 277.243C143.223 277.007 143.19 276.739 143.166 276.438C142.686 276.958 142.132 277.402 141.506 277.768C140.757 278.199 139.911 278.415 138.967 278.415C137.762 278.415 136.765 278.073 135.976 277.39C135.195 276.698 134.804 275.721 134.804 274.46C134.804 272.824 135.435 271.64 136.696 270.908C137.388 270.509 138.405 270.224 139.748 270.053L140.932 269.907C141.575 269.825 142.035 269.724 142.312 269.602C142.808 269.39 143.056 269.06 143.056 268.613C143.056 268.068 142.865 267.693 142.482 267.49C142.108 267.278 141.555 267.172 140.822 267.172C140 267.172 139.418 267.376 139.077 267.783C138.833 268.084 138.67 268.491 138.588 269.003H135.231C135.305 267.84 135.63 266.883 136.208 266.135ZM138.796 275.485C139.121 275.754 139.52 275.888 139.992 275.888C140.741 275.888 141.429 275.668 142.055 275.229C142.69 274.79 143.02 273.988 143.044 272.824V271.53C142.824 271.669 142.6 271.783 142.373 271.872C142.153 271.953 141.848 272.031 141.457 272.104L140.676 272.25C139.943 272.381 139.418 272.539 139.101 272.727C138.564 273.044 138.295 273.536 138.295 274.204C138.295 274.798 138.462 275.225 138.796 275.485ZM160.769 266.123C161.843 267.27 162.38 268.955 162.38 271.176C162.38 273.52 161.851 275.306 160.793 276.535C159.743 277.764 158.388 278.378 156.728 278.378C155.67 278.378 154.791 278.114 154.091 277.585C153.709 277.292 153.334 276.865 152.968 276.303V283.237H149.526V264.694H152.858V266.66C153.233 266.082 153.632 265.626 154.055 265.292C154.828 264.698 155.747 264.401 156.813 264.401C158.368 264.401 159.686 264.975 160.769 266.123ZM158.791 271.347C158.791 270.322 158.555 269.414 158.083 268.625C157.619 267.836 156.862 267.441 155.812 267.441C154.551 267.441 153.684 268.039 153.212 269.235C152.968 269.87 152.846 270.676 152.846 271.652C152.846 273.199 153.257 274.285 154.079 274.912C154.567 275.278 155.145 275.461 155.812 275.461C156.781 275.461 157.517 275.087 158.022 274.338C158.535 273.589 158.791 272.592 158.791 271.347ZM164.98 260.007H168.459V278H164.98V260.007ZM172.365 266.135C173.285 264.963 174.864 264.377 177.102 264.377C178.558 264.377 179.852 264.666 180.983 265.244C182.115 265.821 182.68 266.912 182.68 268.515V274.619C182.68 275.042 182.688 275.555 182.705 276.157C182.729 276.612 182.798 276.922 182.912 277.084C183.026 277.247 183.197 277.382 183.425 277.487V278H179.641C179.535 277.731 179.462 277.479 179.421 277.243C179.38 277.007 179.348 276.739 179.323 276.438C178.843 276.958 178.29 277.402 177.663 277.768C176.914 278.199 176.068 278.415 175.124 278.415C173.92 278.415 172.923 278.073 172.133 277.39C171.352 276.698 170.961 275.721 170.961 274.46C170.961 272.824 171.592 271.64 172.854 270.908C173.545 270.509 174.562 270.224 175.905 270.053L177.089 269.907C177.732 269.825 178.192 269.724 178.469 269.602C178.965 269.39 179.213 269.06 179.213 268.613C179.213 268.068 179.022 267.693 178.64 267.49C178.265 267.278 177.712 267.172 176.979 267.172C176.158 267.172 175.576 267.376 175.234 267.783C174.99 268.084 174.827 268.491 174.746 269.003H171.389C171.462 267.84 171.787 266.883 172.365 266.135ZM174.953 275.485C175.279 275.754 175.677 275.888 176.149 275.888C176.898 275.888 177.586 275.668 178.212 275.229C178.847 274.79 179.177 273.988 179.201 272.824V271.53C178.981 271.669 178.758 271.783 178.53 271.872C178.31 271.953 178.005 272.031 177.614 272.104L176.833 272.25C176.101 272.381 175.576 272.539 175.258 272.727C174.721 273.044 174.453 273.536 174.453 274.204C174.453 274.798 174.619 275.225 174.953 275.485ZM192.043 267.27C190.863 267.27 190.053 267.771 189.614 268.771C189.386 269.3 189.272 269.976 189.272 270.798V278H185.805V264.719H189.162V266.66C189.61 265.976 190.033 265.484 190.432 265.183C191.148 264.646 192.055 264.377 193.154 264.377C194.529 264.377 195.652 264.739 196.523 265.463C197.402 266.18 197.841 267.372 197.841 269.04V278H194.277V269.907C194.277 269.207 194.183 268.67 193.996 268.295C193.654 267.612 193.003 267.27 192.043 267.27ZM201.113 264.694H204.641V278H201.113V264.694ZM214.284 267.27C213.104 267.27 212.294 267.771 211.855 268.771C211.627 269.3 211.513 269.976 211.513 270.798V278H208.046V264.719H211.403V266.66C211.851 265.976 212.274 265.484 212.673 265.183C213.389 264.646 214.296 264.377 215.395 264.377C216.77 264.377 217.893 264.739 218.764 265.463C219.643 266.18 220.083 267.372 220.083 269.04V278H216.518V269.907C216.518 269.207 216.424 268.67 216.237 268.295C215.896 267.612 215.244 267.27 214.284 267.27ZM223.354 264.694H226.882V278H223.354V264.694ZM112.136 304.4C113.023 304.4 113.743 304.302 114.296 304.107C115.346 303.733 115.871 303.037 115.871 302.02C115.871 301.425 115.611 300.966 115.09 300.64C114.569 300.323 113.751 300.042 112.636 299.798L110.732 299.371C108.86 298.947 107.566 298.488 106.85 297.991C105.638 297.161 105.031 295.863 105.031 294.097C105.031 292.486 105.617 291.147 106.789 290.081C107.961 289.015 109.682 288.482 111.953 288.482C113.849 288.482 115.464 288.986 116.799 289.996C118.142 290.997 118.846 292.453 118.911 294.366H115.297C115.232 293.283 114.76 292.514 113.881 292.059C113.295 291.757 112.567 291.607 111.696 291.607C110.728 291.607 109.955 291.802 109.377 292.193C108.799 292.583 108.51 293.129 108.51 293.829C108.51 294.472 108.795 294.952 109.365 295.269C109.731 295.481 110.512 295.729 111.708 296.014L114.809 296.758C116.168 297.084 117.194 297.519 117.885 298.064C118.959 298.911 119.497 300.136 119.497 301.739C119.497 303.383 118.866 304.75 117.604 305.84C116.351 306.923 114.577 307.464 112.282 307.464C109.938 307.464 108.095 306.931 106.752 305.865C105.41 304.791 104.738 303.318 104.738 301.446H108.327C108.441 302.268 108.665 302.882 108.999 303.289C109.609 304.03 110.655 304.4 112.136 304.4ZM133.388 303.094C133.299 303.883 132.888 304.685 132.155 305.499C131.016 306.792 129.421 307.439 127.37 307.439C125.677 307.439 124.184 306.894 122.89 305.804C121.596 304.713 120.949 302.939 120.949 300.481C120.949 298.178 121.531 296.412 122.695 295.184C123.867 293.955 125.384 293.34 127.248 293.34C128.355 293.34 129.352 293.548 130.239 293.963C131.126 294.378 131.858 295.033 132.436 295.928C132.957 296.718 133.295 297.633 133.449 298.675C133.539 299.285 133.575 300.164 133.559 301.312H124.453C124.501 302.646 124.921 303.582 125.71 304.119C126.19 304.453 126.768 304.62 127.443 304.62C128.16 304.62 128.741 304.416 129.189 304.009C129.433 303.79 129.649 303.484 129.836 303.094H133.388ZM129.946 299.017C129.889 298.097 129.608 297.401 129.104 296.929C128.607 296.449 127.989 296.209 127.248 296.209C126.442 296.209 125.816 296.461 125.368 296.966C124.929 297.47 124.652 298.154 124.538 299.017H129.946ZM142.177 296.27C140.997 296.27 140.188 296.771 139.748 297.771C139.52 298.3 139.406 298.976 139.406 299.798V307H135.939V293.719H139.296V295.66C139.744 294.976 140.167 294.484 140.566 294.183C141.282 293.646 142.189 293.377 143.288 293.377C144.663 293.377 145.786 293.739 146.657 294.463C147.536 295.18 147.976 296.372 147.976 298.04V307H144.411V298.907C144.411 298.207 144.318 297.67 144.13 297.295C143.789 296.612 143.138 296.27 142.177 296.27ZM172.524 289.007L166.506 300.237V307H162.746V300.237L156.521 289.007H160.952L164.687 296.844L168.264 289.007H172.524ZM173.525 295.135C174.444 293.963 176.023 293.377 178.261 293.377C179.718 293.377 181.012 293.666 182.143 294.244C183.274 294.821 183.84 295.912 183.84 297.515V303.619C183.84 304.042 183.848 304.555 183.864 305.157C183.889 305.612 183.958 305.922 184.072 306.084C184.186 306.247 184.357 306.382 184.584 306.487V307H180.8C180.694 306.731 180.621 306.479 180.581 306.243C180.54 306.007 180.507 305.739 180.483 305.438C180.003 305.958 179.449 306.402 178.823 306.768C178.074 307.199 177.228 307.415 176.284 307.415C175.079 307.415 174.082 307.073 173.293 306.39C172.512 305.698 172.121 304.721 172.121 303.46C172.121 301.824 172.752 300.64 174.013 299.908C174.705 299.509 175.722 299.224 177.065 299.053L178.249 298.907C178.892 298.825 179.352 298.724 179.628 298.602C180.125 298.39 180.373 298.06 180.373 297.613C180.373 297.068 180.182 296.693 179.799 296.49C179.425 296.278 178.872 296.172 178.139 296.172C177.317 296.172 176.735 296.376 176.394 296.783C176.149 297.084 175.987 297.491 175.905 298.003H172.548C172.622 296.84 172.947 295.883 173.525 295.135ZM176.113 304.485C176.438 304.754 176.837 304.888 177.309 304.888C178.058 304.888 178.745 304.668 179.372 304.229C180.007 303.79 180.336 302.988 180.361 301.824V300.53C180.141 300.669 179.917 300.783 179.689 300.872C179.47 300.953 179.165 301.031 178.774 301.104L177.993 301.25C177.26 301.381 176.735 301.539 176.418 301.727C175.881 302.044 175.612 302.536 175.612 303.204C175.612 303.798 175.779 304.225 176.113 304.485ZM193.63 296.905C192.23 296.905 191.29 297.361 190.81 298.272C190.542 298.785 190.407 299.574 190.407 300.64V307H186.904V293.694H190.224V296.014C190.761 295.127 191.229 294.52 191.628 294.195C192.279 293.65 193.125 293.377 194.167 293.377C194.232 293.377 194.285 293.381 194.326 293.389C194.375 293.389 194.476 293.393 194.631 293.401V296.966C194.411 296.941 194.216 296.925 194.045 296.917C193.874 296.909 193.736 296.905 193.63 296.905ZM197.182 295.135C198.102 293.963 199.681 293.377 201.918 293.377C203.375 293.377 204.669 293.666 205.8 294.244C206.931 294.821 207.497 295.912 207.497 297.515V303.619C207.497 304.042 207.505 304.555 207.521 305.157C207.546 305.612 207.615 305.922 207.729 306.084C207.843 306.247 208.014 306.382 208.242 306.487V307H204.458C204.352 306.731 204.278 306.479 204.238 306.243C204.197 306.007 204.165 305.739 204.14 305.438C203.66 305.958 203.107 306.402 202.48 306.768C201.731 307.199 200.885 307.415 199.941 307.415C198.736 307.415 197.74 307.073 196.95 306.39C196.169 305.698 195.778 304.721 195.778 303.46C195.778 301.824 196.409 300.64 197.67 299.908C198.362 299.509 199.379 299.224 200.722 299.053L201.906 298.907C202.549 298.825 203.009 298.724 203.286 298.602C203.782 298.39 204.03 298.06 204.03 297.613C204.03 297.068 203.839 296.693 203.457 296.49C203.082 296.278 202.529 296.172 201.796 296.172C200.974 296.172 200.393 296.376 200.051 296.783C199.807 297.084 199.644 297.491 199.562 298.003H196.206C196.279 296.84 196.604 295.883 197.182 295.135ZM199.77 304.485C200.096 304.754 200.494 304.888 200.966 304.888C201.715 304.888 202.403 304.668 203.029 304.229C203.664 303.79 203.994 302.988 204.018 301.824V300.53C203.798 300.669 203.575 300.783 203.347 300.872C203.127 300.953 202.822 301.031 202.431 301.104L201.65 301.25C200.917 301.381 200.393 301.539 200.075 301.727C199.538 302.044 199.27 302.536 199.27 303.204C199.27 303.798 199.436 304.225 199.77 304.485ZM216.689 304.522V307.122L215.041 307.183C213.397 307.24 212.274 306.955 211.672 306.329C211.281 305.93 211.086 305.315 211.086 304.485V296.294H209.23V293.816H211.086V290.105H214.528V293.816H216.689V296.294H214.528V303.326C214.528 303.871 214.597 304.213 214.736 304.351C214.874 304.481 215.297 304.546 216.005 304.546C216.111 304.546 216.221 304.546 216.335 304.546C216.457 304.538 216.575 304.53 216.689 304.522Z" fill="#4B6DFF"/>
<circle cx="160.5" cy="182.5" r="41.5" fill="#4B6DFF"/>
<path d="M160.5 202.167V182.5M160.5 182.5V162.833M160.5 182.5H180.167M160.5 182.5H140.833" stroke="white" stroke-width="5" stroke-linecap="round"/>
<defs>
<filter id="filter0_d_178_36" x="0" y="0" width="321" height="468" filterUnits="userSpaceOnUse" color-interpolation-filters="sRGB">
<feFlood flood-opacity="0" result="BackgroundImageFix"/>
<feColorMatrix in="SourceAlpha" type="matrix" values="0 0 0 0 0 0 0 0 0 0 0 0 0 0 0 0 0 0 127 0" result="hardAlpha"/>
<feOffset dy="12"/>
<feGaussianBlur stdDeviation="17.5"/>
<feComposite in2="hardAlpha" operator="out"/>
<feColorMatrix type="matrix" values="0 0 0 0 0.841667 0 0 0 0 0.841667 0 0 0 0 0.841667 0 0 0 0.49 0"/>
<feBlend mode="normal" in2="BackgroundImageFix" result="effect1_dropShadow_178_36"/>
<feBlend mode="normal" in="SourceGraphic" in2="effect1_dropShadow_178_36" result="shape"/>
</filter>
</defs>
</svg>
