<svg width="1494" height="982" viewBox="0 0 1494 982" fill="none" xmlns="http://www.w3.org/2000/svg">
<circle cx="5.5" cy="44.5" r="5.5" fill="#EFEFEF"/>
<circle cx="58.5" cy="44.5" r="5.5" fill="#EFEFEF"/>
<circle cx="111.5" cy="44.5" r="5.5" fill="#EFEFEF"/>
<circle cx="164.5" cy="44.5" r="5.5" fill="#EFEFEF"/>
<circle cx="217.5" cy="44.5" r="5.5" fill="#EFEFEF"/>
<circle cx="270.5" cy="44.5" r="5.5" fill="#EFEFEF"/>
<circle cx="323.5" cy="44.5" r="5.5" fill="#EFEFEF"/>
<circle cx="376.5" cy="44.5" r="5.5" fill="#EFEFEF"/>
<circle cx="429.5" cy="44.5" r="5.5" fill="#EFEFEF"/>
<circle cx="482.5" cy="44.5" r="5.5" fill="#EFEFEF"/>
<circle cx="535.5" cy="44.5" r="5.5" fill="#EFEFEF"/>
<circle cx="588.5" cy="44.5" r="5.5" fill="#EFEFEF"/>
<circle cx="641.5" cy="44.5" r="5.5" fill="#EFEFEF"/>
<circle cx="694.5" cy="44.5" r="5.5" fill="#EFEFEF"/>
<circle cx="747.5" cy="44.5" r="5.5" fill="#EFEFEF"/>
<circle cx="800.5" cy="44.5" r="5.5" fill="#EFEFEF"/>
<circle cx="853.5" cy="44.5" r="5.5" fill="#EFEFEF"/>
<circle cx="906.5" cy="44.5" r="5.5" fill="#EFEFEF"/>
<circle cx="959.5" cy="44.5" r="5.5" fill="#EFEFEF"/>
<circle cx="1012.5" cy="44.5" r="5.5" fill="#EFEFEF"/>
<circle cx="1065.5" cy="44.5" r="5.5" fill="#EFEFEF"/>
<circle cx="1118.5" cy="44.5" r="5.5" fill="#EFEFEF"/>
<circle cx="1171.5" cy="44.5" r="5.5" fill="#EFEFEF"/>
<circle cx="1224.5" cy="44.5" r="5.5" fill="#EFEFEF"/>
<circle cx="1277.5" cy="44.5" r="5.5" fill="#EFEFEF"/>
<circle cx="1330.5" cy="44.5" r="5.5" fill="#EFEFEF"/>
<circle cx="1383.5" cy="44.5" r="5.5" fill="#EFEFEF"/>
<circle cx="1436.5" cy="44.5" r="5.5" fill="#EFEFEF"/>
<circle cx="1489.5" cy="44.5" r="5.5" fill="#EFEFEF"/>
<circle cx="5.5" cy="97.5" r="5.5" fill="#EFEFEF"/>
<circle cx="58.5" cy="97.5" r="5.5" fill="#EFEFEF"/>
<circle cx="111.5" cy="97.5" r="5.5" fill="#EFEFEF"/>
<circle cx="164.5" cy="97.5" r="5.5" fill="#EFEFEF"/>
<circle cx="217.5" cy="97.5" r="5.5" fill="#EFEFEF"/>
<circle cx="270.5" cy="97.5" r="5.5" fill="#EFEFEF"/>
<circle cx="323.5" cy="97.5" r="5.5" fill="#EFEFEF"/>
<circle cx="376.5" cy="97.5" r="5.5" fill="#EFEFEF"/>
<circle cx="429.5" cy="97.5" r="5.5" fill="#EFEFEF"/>
<circle cx="482.5" cy="97.5" r="5.5" fill="#EFEFEF"/>
<circle cx="535.5" cy="97.5" r="5.5" fill="#EFEFEF"/>
<circle cx="588.5" cy="97.5" r="5.5" fill="#EFEFEF"/>
<circle cx="641.5" cy="97.5" r="5.5" fill="#EFEFEF"/>
<circle cx="694.5" cy="97.5" r="5.5" fill="#EFEFEF"/>
<circle cx="747.5" cy="97.5" r="5.5" fill="#EFEFEF"/>
<circle cx="800.5" cy="97.5" r="5.5" fill="#EFEFEF"/>
<circle cx="853.5" cy="97.5" r="5.5" fill="#EFEFEF"/>
<circle cx="906.5" cy="97.5" r="5.5" fill="#EFEFEF"/>
<circle cx="959.5" cy="97.5" r="5.5" fill="#EFEFEF"/>
<circle cx="1012.5" cy="97.5" r="5.5" fill="#EFEFEF"/>
<circle cx="1065.5" cy="97.5" r="5.5" fill="#EFEFEF"/>
<circle cx="1118.5" cy="97.5" r="5.5" fill="#EFEFEF"/>
<circle cx="1171.5" cy="97.5" r="5.5" fill="#EFEFEF"/>
<circle cx="1224.5" cy="97.5" r="5.5" fill="#EFEFEF"/>
<circle cx="1277.5" cy="97.5" r="5.5" fill="#EFEFEF"/>
<circle cx="1330.5" cy="97.5" r="5.5" fill="#EFEFEF"/>
<circle cx="1383.5" cy="97.5" r="5.5" fill="#EFEFEF"/>
<circle cx="1436.5" cy="97.5" r="5.5" fill="#EFEFEF"/>
<circle cx="1489.5" cy="97.5" r="5.5" fill="#EFEFEF"/>
<circle cx="5.5" cy="150.5" r="5.5" fill="#EFEFEF"/>
<circle cx="58.5" cy="150.5" r="5.5" fill="#EFEFEF"/>
<circle cx="111.5" cy="150.5" r="5.5" fill="#EFEFEF"/>
<circle cx="164.5" cy="150.5" r="5.5" fill="#EFEFEF"/>
<circle cx="217.5" cy="150.5" r="5.5" fill="#EFEFEF"/>
<circle cx="270.5" cy="150.5" r="5.5" fill="#EFEFEF"/>
<circle cx="323.5" cy="150.5" r="5.5" fill="#EFEFEF"/>
<circle cx="376.5" cy="150.5" r="5.5" fill="#EFEFEF"/>
<circle cx="429.5" cy="150.5" r="5.5" fill="#EFEFEF"/>
<circle cx="482.5" cy="150.5" r="5.5" fill="#EFEFEF"/>
<circle cx="535.5" cy="150.5" r="5.5" fill="#EFEFEF"/>
<circle cx="588.5" cy="150.5" r="5.5" fill="#EFEFEF"/>
<circle cx="641.5" cy="150.5" r="5.5" fill="#EFEFEF"/>
<circle cx="694.5" cy="150.5" r="5.5" fill="#EFEFEF"/>
<circle cx="747.5" cy="150.5" r="5.5" fill="#EFEFEF"/>
<circle cx="800.5" cy="150.5" r="5.5" fill="#EFEFEF"/>
<circle cx="853.5" cy="150.5" r="5.5" fill="#EFEFEF"/>
<circle cx="906.5" cy="150.5" r="5.5" fill="#EFEFEF"/>
<circle cx="959.5" cy="150.5" r="5.5" fill="#EFEFEF"/>
<circle cx="1012.5" cy="150.5" r="5.5" fill="#EFEFEF"/>
<circle cx="1065.5" cy="150.5" r="5.5" fill="#EFEFEF"/>
<circle cx="1118.5" cy="150.5" r="5.5" fill="#EFEFEF"/>
<circle cx="1171.5" cy="150.5" r="5.5" fill="#EFEFEF"/>
<circle cx="1224.5" cy="150.5" r="5.5" fill="#EFEFEF"/>
<circle cx="1277.5" cy="150.5" r="5.5" fill="#EFEFEF"/>
<circle cx="1330.5" cy="150.5" r="5.5" fill="#EFEFEF"/>
<circle cx="1383.5" cy="150.5" r="5.5" fill="#EFEFEF"/>
<circle cx="1436.5" cy="150.5" r="5.5" fill="#EFEFEF"/>
<circle cx="1489.5" cy="150.5" r="5.5" fill="#EFEFEF"/>
<circle cx="5.5" cy="203.5" r="5.5" fill="#EFEFEF"/>
<circle cx="58.5" cy="203.5" r="5.5" fill="#EFEFEF"/>
<circle cx="111.5" cy="203.5" r="5.5" fill="#EFEFEF"/>
<circle cx="164.5" cy="203.5" r="5.5" fill="#EFEFEF"/>
<circle cx="217.5" cy="203.5" r="5.5" fill="#EFEFEF"/>
<circle cx="270.5" cy="203.5" r="5.5" fill="#EFEFEF"/>
<circle cx="323.5" cy="203.5" r="5.5" fill="#EFEFEF"/>
<circle cx="376.5" cy="203.5" r="5.5" fill="#EFEFEF"/>
<circle cx="429.5" cy="203.5" r="5.5" fill="#EFEFEF"/>
<circle cx="482.5" cy="203.5" r="5.5" fill="#EFEFEF"/>
<circle cx="535.5" cy="203.5" r="5.5" fill="#EFEFEF"/>
<circle cx="588.5" cy="203.5" r="5.5" fill="#EFEFEF"/>
<circle cx="641.5" cy="203.5" r="5.5" fill="#EFEFEF"/>
<circle cx="694.5" cy="203.5" r="5.5" fill="#EFEFEF"/>
<circle cx="747.5" cy="203.5" r="5.5" fill="#EFEFEF"/>
<circle cx="800.5" cy="203.5" r="5.5" fill="#EFEFEF"/>
<circle cx="853.5" cy="203.5" r="5.5" fill="#EFEFEF"/>
<circle cx="906.5" cy="203.5" r="5.5" fill="#EFEFEF"/>
<circle cx="959.5" cy="203.5" r="5.5" fill="#EFEFEF"/>
<circle cx="1012.5" cy="203.5" r="5.5" fill="#EFEFEF"/>
<circle cx="1065.5" cy="203.5" r="5.5" fill="#EFEFEF"/>
<circle cx="1118.5" cy="203.5" r="5.5" fill="#EFEFEF"/>
<circle cx="1171.5" cy="203.5" r="5.5" fill="#EFEFEF"/>
<circle cx="1224.5" cy="203.5" r="5.5" fill="#EFEFEF"/>
<circle cx="1277.5" cy="203.5" r="5.5" fill="#EFEFEF"/>
<circle cx="1330.5" cy="203.5" r="5.5" fill="#EFEFEF"/>
<circle cx="1383.5" cy="203.5" r="5.5" fill="#EFEFEF"/>
<circle cx="1436.5" cy="203.5" r="5.5" fill="#EFEFEF"/>
<circle cx="1489.5" cy="203.5" r="5.5" fill="#EFEFEF"/>
<circle cx="5.5" cy="256.5" r="5.5" fill="#EFEFEF"/>
<circle cx="58.5" cy="256.5" r="5.5" fill="#EFEFEF"/>
<circle cx="111.5" cy="256.5" r="5.5" fill="#EFEFEF"/>
<circle cx="164.5" cy="256.5" r="5.5" fill="#EFEFEF"/>
<circle cx="217.5" cy="256.5" r="5.5" fill="#EFEFEF"/>
<circle cx="270.5" cy="256.5" r="5.5" fill="#EFEFEF"/>
<circle cx="323.5" cy="256.5" r="5.5" fill="#EFEFEF"/>
<circle cx="376.5" cy="256.5" r="5.5" fill="#EFEFEF"/>
<circle cx="429.5" cy="256.5" r="5.5" fill="#EFEFEF"/>
<circle cx="482.5" cy="256.5" r="5.5" fill="#EFEFEF"/>
<circle cx="535.5" cy="256.5" r="5.5" fill="#EFEFEF"/>
<circle cx="588.5" cy="256.5" r="5.5" fill="#EFEFEF"/>
<circle cx="641.5" cy="256.5" r="5.5" fill="#EFEFEF"/>
<circle cx="694.5" cy="256.5" r="5.5" fill="#EFEFEF"/>
<circle cx="747.5" cy="256.5" r="5.5" fill="#EFEFEF"/>
<circle cx="800.5" cy="256.5" r="5.5" fill="#EFEFEF"/>
<circle cx="853.5" cy="256.5" r="5.5" fill="#EFEFEF"/>
<circle cx="906.5" cy="256.5" r="5.5" fill="#EFEFEF"/>
<circle cx="959.5" cy="256.5" r="5.5" fill="#EFEFEF"/>
<circle cx="1012.5" cy="256.5" r="5.5" fill="#EFEFEF"/>
<circle cx="1065.5" cy="256.5" r="5.5" fill="#EFEFEF"/>
<circle cx="1118.5" cy="256.5" r="5.5" fill="#EFEFEF"/>
<circle cx="1171.5" cy="256.5" r="5.5" fill="#EFEFEF"/>
<circle cx="1224.5" cy="256.5" r="5.5" fill="#EFEFEF"/>
<circle cx="1277.5" cy="256.5" r="5.5" fill="#EFEFEF"/>
<circle cx="1330.5" cy="256.5" r="5.5" fill="#EFEFEF"/>
<circle cx="1383.5" cy="256.5" r="5.5" fill="#EFEFEF"/>
<circle cx="1436.5" cy="256.5" r="5.5" fill="#EFEFEF"/>
<circle cx="1489.5" cy="256.5" r="5.5" fill="#EFEFEF"/>
<circle cx="5.5" cy="309.5" r="5.5" fill="#EFEFEF"/>
<circle cx="58.5" cy="309.5" r="5.5" fill="#EFEFEF"/>
<circle cx="111.5" cy="309.5" r="5.5" fill="#EFEFEF"/>
<circle cx="164.5" cy="309.5" r="5.5" fill="#EFEFEF"/>
<circle cx="217.5" cy="309.5" r="5.5" fill="#EFEFEF"/>
<circle cx="270.5" cy="309.5" r="5.5" fill="#EFEFEF"/>
<circle cx="323.5" cy="309.5" r="5.5" fill="#EFEFEF"/>
<circle cx="376.5" cy="309.5" r="5.5" fill="#EFEFEF"/>
<circle cx="429.5" cy="309.5" r="5.5" fill="#EFEFEF"/>
<circle cx="482.5" cy="309.5" r="5.5" fill="#EFEFEF"/>
<circle cx="535.5" cy="309.5" r="5.5" fill="#EFEFEF"/>
<circle cx="588.5" cy="309.5" r="5.5" fill="#EFEFEF"/>
<circle cx="641.5" cy="309.5" r="5.5" fill="#EFEFEF"/>
<circle cx="694.5" cy="309.5" r="5.5" fill="#EFEFEF"/>
<circle cx="747.5" cy="309.5" r="5.5" fill="#EFEFEF"/>
<circle cx="800.5" cy="309.5" r="5.5" fill="#EFEFEF"/>
<circle cx="853.5" cy="309.5" r="5.5" fill="#EFEFEF"/>
<circle cx="906.5" cy="309.5" r="5.5" fill="#EFEFEF"/>
<circle cx="959.5" cy="309.5" r="5.5" fill="#EFEFEF"/>
<circle cx="1012.5" cy="309.5" r="5.5" fill="#EFEFEF"/>
<circle cx="1065.5" cy="309.5" r="5.5" fill="#EFEFEF"/>
<circle cx="1118.5" cy="309.5" r="5.5" fill="#EFEFEF"/>
<circle cx="1171.5" cy="309.5" r="5.5" fill="#EFEFEF"/>
<circle cx="1224.5" cy="309.5" r="5.5" fill="#EFEFEF"/>
<circle cx="1277.5" cy="309.5" r="5.5" fill="#EFEFEF"/>
<circle cx="1330.5" cy="309.5" r="5.5" fill="#EFEFEF"/>
<circle cx="1383.5" cy="309.5" r="5.5" fill="#EFEFEF"/>
<circle cx="1436.5" cy="309.5" r="5.5" fill="#EFEFEF"/>
<circle cx="1489.5" cy="309.5" r="5.5" fill="#EFEFEF"/>
<circle cx="5.5" cy="362.5" r="5.5" fill="#EFEFEF"/>
<circle cx="58.5" cy="362.5" r="5.5" fill="#EFEFEF"/>
<circle cx="111.5" cy="362.5" r="5.5" fill="#EFEFEF"/>
<circle cx="164.5" cy="362.5" r="5.5" fill="#EFEFEF"/>
<circle cx="217.5" cy="362.5" r="5.5" fill="#EFEFEF"/>
<circle cx="270.5" cy="362.5" r="5.5" fill="#EFEFEF"/>
<circle cx="323.5" cy="362.5" r="5.5" fill="#EFEFEF"/>
<circle cx="376.5" cy="362.5" r="5.5" fill="#EFEFEF"/>
<circle cx="429.5" cy="362.5" r="5.5" fill="#EFEFEF"/>
<circle cx="482.5" cy="362.5" r="5.5" fill="#EFEFEF"/>
<circle cx="535.5" cy="362.5" r="5.5" fill="#EFEFEF"/>
<circle cx="588.5" cy="362.5" r="5.5" fill="#EFEFEF"/>
<circle cx="641.5" cy="362.5" r="5.5" fill="#EFEFEF"/>
<circle cx="694.5" cy="362.5" r="5.5" fill="#EFEFEF"/>
<circle cx="747.5" cy="362.5" r="5.5" fill="#EFEFEF"/>
<circle cx="800.5" cy="362.5" r="5.5" fill="#EFEFEF"/>
<circle cx="853.5" cy="362.5" r="5.5" fill="#EFEFEF"/>
<circle cx="906.5" cy="362.5" r="5.5" fill="#EFEFEF"/>
<circle cx="959.5" cy="362.5" r="5.5" fill="#EFEFEF"/>
<circle cx="1012.5" cy="362.5" r="5.5" fill="#EFEFEF"/>
<circle cx="1065.5" cy="362.5" r="5.5" fill="#EFEFEF"/>
<circle cx="1118.5" cy="362.5" r="5.5" fill="#EFEFEF"/>
<circle cx="1171.5" cy="362.5" r="5.5" fill="#EFEFEF"/>
<circle cx="1224.5" cy="362.5" r="5.5" fill="#EFEFEF"/>
<circle cx="1277.5" cy="362.5" r="5.5" fill="#EFEFEF"/>
<circle cx="1330.5" cy="362.5" r="5.5" fill="#EFEFEF"/>
<circle cx="1383.5" cy="362.5" r="5.5" fill="#EFEFEF"/>
<circle cx="1436.5" cy="362.5" r="5.5" fill="#EFEFEF"/>
<circle cx="1489.5" cy="362.5" r="5.5" fill="#EFEFEF"/>
<circle cx="5.5" cy="415.5" r="5.5" fill="#EFEFEF"/>
<circle cx="58.5" cy="415.5" r="5.5" fill="#EFEFEF"/>
<circle cx="111.5" cy="415.5" r="5.5" fill="#EFEFEF"/>
<circle cx="164.5" cy="415.5" r="5.5" fill="#EFEFEF"/>
<circle cx="217.5" cy="415.5" r="5.5" fill="#EFEFEF"/>
<circle cx="270.5" cy="415.5" r="5.5" fill="#EFEFEF"/>
<circle cx="323.5" cy="415.5" r="5.5" fill="#EFEFEF"/>
<circle cx="376.5" cy="415.5" r="5.5" fill="#EFEFEF"/>
<circle cx="429.5" cy="415.5" r="5.5" fill="#EFEFEF"/>
<circle cx="482.5" cy="415.5" r="5.5" fill="#EFEFEF"/>
<circle cx="535.5" cy="415.5" r="5.5" fill="#EFEFEF"/>
<circle cx="588.5" cy="415.5" r="5.5" fill="#EFEFEF"/>
<circle cx="641.5" cy="415.5" r="5.5" fill="#EFEFEF"/>
<circle cx="694.5" cy="415.5" r="5.5" fill="#EFEFEF"/>
<circle cx="747.5" cy="415.5" r="5.5" fill="#EFEFEF"/>
<circle cx="800.5" cy="415.5" r="5.5" fill="#EFEFEF"/>
<circle cx="853.5" cy="415.5" r="5.5" fill="#EFEFEF"/>
<circle cx="906.5" cy="415.5" r="5.5" fill="#EFEFEF"/>
<circle cx="959.5" cy="415.5" r="5.5" fill="#EFEFEF"/>
<circle cx="1012.5" cy="415.5" r="5.5" fill="#EFEFEF"/>
<circle cx="1065.5" cy="415.5" r="5.5" fill="#EFEFEF"/>
<circle cx="1118.5" cy="415.5" r="5.5" fill="#EFEFEF"/>
<circle cx="1171.5" cy="415.5" r="5.5" fill="#EFEFEF"/>
<circle cx="1224.5" cy="415.5" r="5.5" fill="#EFEFEF"/>
<circle cx="1277.5" cy="415.5" r="5.5" fill="#EFEFEF"/>
<circle cx="1330.5" cy="415.5" r="5.5" fill="#EFEFEF"/>
<circle cx="1383.5" cy="415.5" r="5.5" fill="#EFEFEF"/>
<circle cx="1436.5" cy="415.5" r="5.5" fill="#EFEFEF"/>
<circle cx="1489.5" cy="415.5" r="5.5" fill="#EFEFEF"/>
<circle cx="5.5" cy="468.5" r="5.5" fill="#EFEFEF"/>
<circle cx="58.5" cy="468.5" r="5.5" fill="#EFEFEF"/>
<circle cx="111.5" cy="468.5" r="5.5" fill="#EFEFEF"/>
<circle cx="164.5" cy="468.5" r="5.5" fill="#EFEFEF"/>
<circle cx="217.5" cy="468.5" r="5.5" fill="#EFEFEF"/>
<circle cx="270.5" cy="468.5" r="5.5" fill="#EFEFEF"/>
<circle cx="323.5" cy="468.5" r="5.5" fill="#EFEFEF"/>
<circle cx="376.5" cy="468.5" r="5.5" fill="#EFEFEF"/>
<circle cx="429.5" cy="468.5" r="5.5" fill="#EFEFEF"/>
<circle cx="482.5" cy="468.5" r="5.5" fill="#EFEFEF"/>
<circle cx="535.5" cy="468.5" r="5.5" fill="#EFEFEF"/>
<circle cx="588.5" cy="468.5" r="5.5" fill="#EFEFEF"/>
<circle cx="641.5" cy="468.5" r="5.5" fill="#EFEFEF"/>
<circle cx="694.5" cy="468.5" r="5.5" fill="#EFEFEF"/>
<circle cx="747.5" cy="468.5" r="5.5" fill="#EFEFEF"/>
<circle cx="800.5" cy="468.5" r="5.5" fill="#EFEFEF"/>
<circle cx="853.5" cy="468.5" r="5.5" fill="#EFEFEF"/>
<circle cx="906.5" cy="468.5" r="5.5" fill="#EFEFEF"/>
<circle cx="959.5" cy="468.5" r="5.5" fill="#EFEFEF"/>
<circle cx="1012.5" cy="468.5" r="5.5" fill="#EFEFEF"/>
<circle cx="1065.5" cy="468.5" r="5.5" fill="#EFEFEF"/>
<circle cx="1118.5" cy="468.5" r="5.5" fill="#EFEFEF"/>
<circle cx="1171.5" cy="468.5" r="5.5" fill="#EFEFEF"/>
<circle cx="1224.5" cy="468.5" r="5.5" fill="#EFEFEF"/>
<circle cx="1277.5" cy="468.5" r="5.5" fill="#EFEFEF"/>
<circle cx="1330.5" cy="468.5" r="5.5" fill="#EFEFEF"/>
<circle cx="1383.5" cy="468.5" r="5.5" fill="#EFEFEF"/>
<circle cx="1436.5" cy="468.5" r="5.5" fill="#EFEFEF"/>
<circle cx="1489.5" cy="468.5" r="5.5" fill="#EFEFEF"/>
<circle cx="5.5" cy="521.5" r="5.5" fill="#EFEFEF"/>
<circle cx="58.5" cy="521.5" r="5.5" fill="#EFEFEF"/>
<circle cx="111.5" cy="521.5" r="5.5" fill="#EFEFEF"/>
<circle cx="164.5" cy="521.5" r="5.5" fill="#EFEFEF"/>
<circle cx="217.5" cy="521.5" r="5.5" fill="#EFEFEF"/>
<circle cx="270.5" cy="521.5" r="5.5" fill="#EFEFEF"/>
<circle cx="323.5" cy="521.5" r="5.5" fill="#EFEFEF"/>
<circle cx="376.5" cy="521.5" r="5.5" fill="#EFEFEF"/>
<circle cx="429.5" cy="521.5" r="5.5" fill="#EFEFEF"/>
<circle cx="482.5" cy="521.5" r="5.5" fill="#EFEFEF"/>
<circle cx="535.5" cy="521.5" r="5.5" fill="#EFEFEF"/>
<circle cx="588.5" cy="521.5" r="5.5" fill="#EFEFEF"/>
<circle cx="641.5" cy="521.5" r="5.5" fill="#EFEFEF"/>
<circle cx="694.5" cy="521.5" r="5.5" fill="#EFEFEF"/>
<circle cx="747.5" cy="521.5" r="5.5" fill="#EFEFEF"/>
<circle cx="800.5" cy="521.5" r="5.5" fill="#EFEFEF"/>
<circle cx="853.5" cy="521.5" r="5.5" fill="#EFEFEF"/>
<circle cx="906.5" cy="521.5" r="5.5" fill="#EFEFEF"/>
<circle cx="959.5" cy="521.5" r="5.5" fill="#EFEFEF"/>
<circle cx="1012.5" cy="521.5" r="5.5" fill="#EFEFEF"/>
<circle cx="1065.5" cy="521.5" r="5.5" fill="#EFEFEF"/>
<circle cx="1118.5" cy="521.5" r="5.5" fill="#EFEFEF"/>
<circle cx="1171.5" cy="521.5" r="5.5" fill="#EFEFEF"/>
<circle cx="1224.5" cy="521.5" r="5.5" fill="#EFEFEF"/>
<circle cx="1277.5" cy="521.5" r="5.5" fill="#EFEFEF"/>
<circle cx="1330.5" cy="521.5" r="5.5" fill="#EFEFEF"/>
<circle cx="1383.5" cy="521.5" r="5.5" fill="#EFEFEF"/>
<circle cx="1436.5" cy="521.5" r="5.5" fill="#EFEFEF"/>
<circle cx="1489.5" cy="521.5" r="5.5" fill="#EFEFEF"/>
<circle cx="5.5" cy="574.5" r="5.5" fill="#EFEFEF"/>
<circle cx="58.5" cy="574.5" r="5.5" fill="#EFEFEF"/>
<circle cx="111.5" cy="574.5" r="5.5" fill="#EFEFEF"/>
<circle cx="164.5" cy="574.5" r="5.5" fill="#EFEFEF"/>
<circle cx="217.5" cy="574.5" r="5.5" fill="#EFEFEF"/>
<circle cx="270.5" cy="574.5" r="5.5" fill="#EFEFEF"/>
<circle cx="323.5" cy="574.5" r="5.5" fill="#EFEFEF"/>
<circle cx="376.5" cy="574.5" r="5.5" fill="#EFEFEF"/>
<circle cx="429.5" cy="574.5" r="5.5" fill="#EFEFEF"/>
<circle cx="482.5" cy="574.5" r="5.5" fill="#EFEFEF"/>
<circle cx="535.5" cy="574.5" r="5.5" fill="#EFEFEF"/>
<circle cx="588.5" cy="574.5" r="5.5" fill="#EFEFEF"/>
<circle cx="641.5" cy="574.5" r="5.5" fill="#EFEFEF"/>
<circle cx="694.5" cy="574.5" r="5.5" fill="#EFEFEF"/>
<circle cx="747.5" cy="574.5" r="5.5" fill="#EFEFEF"/>
<circle cx="800.5" cy="574.5" r="5.5" fill="#EFEFEF"/>
<circle cx="853.5" cy="574.5" r="5.5" fill="#EFEFEF"/>
<circle cx="906.5" cy="574.5" r="5.5" fill="#EFEFEF"/>
<circle cx="959.5" cy="574.5" r="5.5" fill="#EFEFEF"/>
<circle cx="1012.5" cy="574.5" r="5.5" fill="#EFEFEF"/>
<circle cx="1065.5" cy="574.5" r="5.5" fill="#EFEFEF"/>
<circle cx="1118.5" cy="574.5" r="5.5" fill="#EFEFEF"/>
<circle cx="1171.5" cy="574.5" r="5.5" fill="#EFEFEF"/>
<circle cx="1224.5" cy="574.5" r="5.5" fill="#EFEFEF"/>
<circle cx="1277.5" cy="574.5" r="5.5" fill="#EFEFEF"/>
<circle cx="1330.5" cy="574.5" r="5.5" fill="#EFEFEF"/>
<circle cx="1383.5" cy="574.5" r="5.5" fill="#EFEFEF"/>
<circle cx="1436.5" cy="574.5" r="5.5" fill="#EFEFEF"/>
<circle cx="1489.5" cy="574.5" r="5.5" fill="#EFEFEF"/>
<circle cx="5.5" cy="627.5" r="5.5" fill="#EFEFEF"/>
<circle cx="58.5" cy="627.5" r="5.5" fill="#EFEFEF"/>
<circle cx="111.5" cy="627.5" r="5.5" fill="#EFEFEF"/>
<circle cx="164.5" cy="627.5" r="5.5" fill="#EFEFEF"/>
<circle cx="217.5" cy="627.5" r="5.5" fill="#EFEFEF"/>
<circle cx="270.5" cy="627.5" r="5.5" fill="#EFEFEF"/>
<circle cx="323.5" cy="627.5" r="5.5" fill="#EFEFEF"/>
<circle cx="376.5" cy="627.5" r="5.5" fill="#EFEFEF"/>
<circle cx="429.5" cy="627.5" r="5.5" fill="#EFEFEF"/>
<circle cx="482.5" cy="627.5" r="5.5" fill="#EFEFEF"/>
<circle cx="535.5" cy="627.5" r="5.5" fill="#EFEFEF"/>
<circle cx="588.5" cy="627.5" r="5.5" fill="#EFEFEF"/>
<circle cx="641.5" cy="627.5" r="5.5" fill="#EFEFEF"/>
<circle cx="694.5" cy="627.5" r="5.5" fill="#EFEFEF"/>
<circle cx="747.5" cy="627.5" r="5.5" fill="#EFEFEF"/>
<circle cx="800.5" cy="627.5" r="5.5" fill="#EFEFEF"/>
<circle cx="853.5" cy="627.5" r="5.5" fill="#EFEFEF"/>
<circle cx="906.5" cy="627.5" r="5.5" fill="#EFEFEF"/>
<circle cx="959.5" cy="627.5" r="5.5" fill="#EFEFEF"/>
<circle cx="1012.5" cy="627.5" r="5.5" fill="#EFEFEF"/>
<circle cx="1065.5" cy="627.5" r="5.5" fill="#EFEFEF"/>
<circle cx="1118.5" cy="627.5" r="5.5" fill="#EFEFEF"/>
<circle cx="1171.5" cy="627.5" r="5.5" fill="#EFEFEF"/>
<circle cx="1224.5" cy="627.5" r="5.5" fill="#EFEFEF"/>
<circle cx="1277.5" cy="627.5" r="5.5" fill="#EFEFEF"/>
<circle cx="1330.5" cy="627.5" r="5.5" fill="#EFEFEF"/>
<circle cx="1383.5" cy="627.5" r="5.5" fill="#EFEFEF"/>
<circle cx="1436.5" cy="627.5" r="5.5" fill="#EFEFEF"/>
<circle cx="1489.5" cy="627.5" r="5.5" fill="#EFEFEF"/>
<circle cx="5.5" cy="680.5" r="5.5" fill="#EFEFEF"/>
<circle cx="58.5" cy="680.5" r="5.5" fill="#EFEFEF"/>
<circle cx="111.5" cy="680.5" r="5.5" fill="#EFEFEF"/>
<circle cx="164.5" cy="680.5" r="5.5" fill="#EFEFEF"/>
<circle cx="217.5" cy="680.5" r="5.5" fill="#EFEFEF"/>
<circle cx="270.5" cy="680.5" r="5.5" fill="#EFEFEF"/>
<circle cx="323.5" cy="680.5" r="5.5" fill="#EFEFEF"/>
<circle cx="376.5" cy="680.5" r="5.5" fill="#EFEFEF"/>
<circle cx="429.5" cy="680.5" r="5.5" fill="#EFEFEF"/>
<circle cx="482.5" cy="680.5" r="5.5" fill="#EFEFEF"/>
<circle cx="535.5" cy="680.5" r="5.5" fill="#EFEFEF"/>
<circle cx="588.5" cy="680.5" r="5.5" fill="#EFEFEF"/>
<circle cx="641.5" cy="680.5" r="5.5" fill="#EFEFEF"/>
<circle cx="694.5" cy="680.5" r="5.5" fill="#EFEFEF"/>
<circle cx="747.5" cy="680.5" r="5.5" fill="#EFEFEF"/>
<circle cx="800.5" cy="680.5" r="5.5" fill="#EFEFEF"/>
<circle cx="853.5" cy="680.5" r="5.5" fill="#EFEFEF"/>
<circle cx="906.5" cy="680.5" r="5.5" fill="#EFEFEF"/>
<circle cx="959.5" cy="680.5" r="5.5" fill="#EFEFEF"/>
<circle cx="1012.5" cy="680.5" r="5.5" fill="#EFEFEF"/>
<circle cx="1065.5" cy="680.5" r="5.5" fill="#EFEFEF"/>
<circle cx="1118.5" cy="680.5" r="5.5" fill="#EFEFEF"/>
<circle cx="1171.5" cy="680.5" r="5.5" fill="#EFEFEF"/>
<circle cx="1224.5" cy="680.5" r="5.5" fill="#EFEFEF"/>
<circle cx="1277.5" cy="680.5" r="5.5" fill="#EFEFEF"/>
<circle cx="1330.5" cy="680.5" r="5.5" fill="#EFEFEF"/>
<circle cx="1383.5" cy="680.5" r="5.5" fill="#EFEFEF"/>
<circle cx="1436.5" cy="680.5" r="5.5" fill="#EFEFEF"/>
<circle cx="1489.5" cy="680.5" r="5.5" fill="#EFEFEF"/>
<circle cx="5.5" cy="733.5" r="5.5" fill="#EFEFEF"/>
<circle cx="58.5" cy="733.5" r="5.5" fill="#EFEFEF"/>
<circle cx="111.5" cy="733.5" r="5.5" fill="#EFEFEF"/>
<circle cx="164.5" cy="733.5" r="5.5" fill="#EFEFEF"/>
<circle cx="217.5" cy="733.5" r="5.5" fill="#EFEFEF"/>
<circle cx="270.5" cy="733.5" r="5.5" fill="#EFEFEF"/>
<circle cx="323.5" cy="733.5" r="5.5" fill="#EFEFEF"/>
<circle cx="376.5" cy="733.5" r="5.5" fill="#EFEFEF"/>
<circle cx="429.5" cy="733.5" r="5.5" fill="#EFEFEF"/>
<circle cx="482.5" cy="733.5" r="5.5" fill="#EFEFEF"/>
<circle cx="535.5" cy="733.5" r="5.5" fill="#EFEFEF"/>
<circle cx="588.5" cy="733.5" r="5.5" fill="#EFEFEF"/>
<circle cx="641.5" cy="733.5" r="5.5" fill="#EFEFEF"/>
<circle cx="694.5" cy="733.5" r="5.5" fill="#EFEFEF"/>
<circle cx="747.5" cy="733.5" r="5.5" fill="#EFEFEF"/>
<circle cx="800.5" cy="733.5" r="5.5" fill="#EFEFEF"/>
<circle cx="853.5" cy="733.5" r="5.5" fill="#EFEFEF"/>
<circle cx="906.5" cy="733.5" r="5.5" fill="#EFEFEF"/>
<circle cx="959.5" cy="733.5" r="5.5" fill="#EFEFEF"/>
<circle cx="1012.5" cy="733.5" r="5.5" fill="#EFEFEF"/>
<circle cx="1065.5" cy="733.5" r="5.5" fill="#EFEFEF"/>
<circle cx="1118.5" cy="733.5" r="5.5" fill="#EFEFEF"/>
<circle cx="1171.5" cy="733.5" r="5.5" fill="#EFEFEF"/>
<circle cx="1224.5" cy="733.5" r="5.5" fill="#EFEFEF"/>
<circle cx="1277.5" cy="733.5" r="5.5" fill="#EFEFEF"/>
<circle cx="1330.5" cy="733.5" r="5.5" fill="#EFEFEF"/>
<circle cx="1383.5" cy="733.5" r="5.5" fill="#EFEFEF"/>
<circle cx="1436.5" cy="733.5" r="5.5" fill="#EFEFEF"/>
<circle cx="1489.5" cy="733.5" r="5.5" fill="#EFEFEF"/>
<circle cx="5.5" cy="786.5" r="5.5" fill="#EFEFEF"/>
<circle cx="58.5" cy="786.5" r="5.5" fill="#EFEFEF"/>
<circle cx="111.5" cy="786.5" r="5.5" fill="#EFEFEF"/>
<circle cx="164.5" cy="786.5" r="5.5" fill="#EFEFEF"/>
<circle cx="217.5" cy="786.5" r="5.5" fill="#EFEFEF"/>
<circle cx="270.5" cy="786.5" r="5.5" fill="#EFEFEF"/>
<circle cx="323.5" cy="786.5" r="5.5" fill="#EFEFEF"/>
<circle cx="376.5" cy="786.5" r="5.5" fill="#EFEFEF"/>
<circle cx="429.5" cy="786.5" r="5.5" fill="#EFEFEF"/>
<circle cx="482.5" cy="786.5" r="5.5" fill="#EFEFEF"/>
<circle cx="535.5" cy="786.5" r="5.5" fill="#EFEFEF"/>
<circle cx="588.5" cy="786.5" r="5.5" fill="#EFEFEF"/>
<circle cx="641.5" cy="786.5" r="5.5" fill="#EFEFEF"/>
<circle cx="694.5" cy="786.5" r="5.5" fill="#EFEFEF"/>
<circle cx="747.5" cy="786.5" r="5.5" fill="#EFEFEF"/>
<circle cx="800.5" cy="786.5" r="5.5" fill="#EFEFEF"/>
<circle cx="853.5" cy="786.5" r="5.5" fill="#EFEFEF"/>
<circle cx="906.5" cy="786.5" r="5.5" fill="#EFEFEF"/>
<circle cx="959.5" cy="786.5" r="5.5" fill="#EFEFEF"/>
<circle cx="1012.5" cy="786.5" r="5.5" fill="#EFEFEF"/>
<circle cx="1065.5" cy="786.5" r="5.5" fill="#EFEFEF"/>
<circle cx="1118.5" cy="786.5" r="5.5" fill="#EFEFEF"/>
<circle cx="1171.5" cy="786.5" r="5.5" fill="#EFEFEF"/>
<circle cx="1224.5" cy="786.5" r="5.5" fill="#EFEFEF"/>
<circle cx="1277.5" cy="786.5" r="5.5" fill="#EFEFEF"/>
<circle cx="1330.5" cy="786.5" r="5.5" fill="#EFEFEF"/>
<circle cx="1383.5" cy="786.5" r="5.5" fill="#EFEFEF"/>
<circle cx="1436.5" cy="786.5" r="5.5" fill="#EFEFEF"/>
<circle cx="1489.5" cy="786.5" r="5.5" fill="#EFEFEF"/>
<circle cx="5.5" cy="839.5" r="5.5" fill="#EFEFEF"/>
<circle cx="58.5" cy="839.5" r="5.5" fill="#EFEFEF"/>
<circle cx="111.5" cy="839.5" r="5.5" fill="#EFEFEF"/>
<circle cx="164.5" cy="839.5" r="5.5" fill="#EFEFEF"/>
<circle cx="217.5" cy="839.5" r="5.5" fill="#EFEFEF"/>
<circle cx="270.5" cy="839.5" r="5.5" fill="#EFEFEF"/>
<circle cx="323.5" cy="839.5" r="5.5" fill="#EFEFEF"/>
<circle cx="376.5" cy="839.5" r="5.5" fill="#EFEFEF"/>
<circle cx="429.5" cy="839.5" r="5.5" fill="#EFEFEF"/>
<circle cx="482.5" cy="839.5" r="5.5" fill="#EFEFEF"/>
<circle cx="535.5" cy="839.5" r="5.5" fill="#EFEFEF"/>
<circle cx="588.5" cy="839.5" r="5.5" fill="#EFEFEF"/>
<circle cx="641.5" cy="839.5" r="5.5" fill="#EFEFEF"/>
<circle cx="694.5" cy="839.5" r="5.5" fill="#EFEFEF"/>
<circle cx="747.5" cy="839.5" r="5.5" fill="#EFEFEF"/>
<circle cx="800.5" cy="839.5" r="5.5" fill="#EFEFEF"/>
<circle cx="853.5" cy="839.5" r="5.5" fill="#EFEFEF"/>
<circle cx="906.5" cy="839.5" r="5.5" fill="#EFEFEF"/>
<circle cx="959.5" cy="839.5" r="5.5" fill="#EFEFEF"/>
<circle cx="1012.5" cy="839.5" r="5.5" fill="#EFEFEF"/>
<circle cx="1065.5" cy="839.5" r="5.5" fill="#EFEFEF"/>
<circle cx="1118.5" cy="839.5" r="5.5" fill="#EFEFEF"/>
<circle cx="1171.5" cy="839.5" r="5.5" fill="#EFEFEF"/>
<circle cx="1224.5" cy="839.5" r="5.5" fill="#EFEFEF"/>
<circle cx="1277.5" cy="839.5" r="5.5" fill="#EFEFEF"/>
<circle cx="1330.5" cy="839.5" r="5.5" fill="#EFEFEF"/>
<circle cx="1383.5" cy="839.5" r="5.5" fill="#EFEFEF"/>
<circle cx="1436.5" cy="839.5" r="5.5" fill="#EFEFEF"/>
<circle cx="1489.5" cy="839.5" r="5.5" fill="#EFEFEF"/>
<circle cx="5.5" cy="892.5" r="5.5" fill="#EFEFEF"/>
<circle cx="58.5" cy="892.5" r="5.5" fill="#EFEFEF"/>
<circle cx="111.5" cy="892.5" r="5.5" fill="#EFEFEF"/>
<circle cx="164.5" cy="892.5" r="5.5" fill="#EFEFEF"/>
<circle cx="217.5" cy="892.5" r="5.5" fill="#EFEFEF"/>
<circle cx="270.5" cy="892.5" r="5.5" fill="#EFEFEF"/>
<circle cx="323.5" cy="892.5" r="5.5" fill="#EFEFEF"/>
<circle cx="376.5" cy="892.5" r="5.5" fill="#EFEFEF"/>
<circle cx="429.5" cy="892.5" r="5.5" fill="#EFEFEF"/>
<circle cx="482.5" cy="892.5" r="5.5" fill="#EFEFEF"/>
<circle cx="535.5" cy="892.5" r="5.5" fill="#EFEFEF"/>
<circle cx="588.5" cy="892.5" r="5.5" fill="#EFEFEF"/>
<circle cx="641.5" cy="892.5" r="5.5" fill="#EFEFEF"/>
<circle cx="694.5" cy="892.5" r="5.5" fill="#EFEFEF"/>
<circle cx="747.5" cy="892.5" r="5.5" fill="#EFEFEF"/>
<circle cx="800.5" cy="892.5" r="5.5" fill="#EFEFEF"/>
<circle cx="853.5" cy="892.5" r="5.5" fill="#EFEFEF"/>
<circle cx="906.5" cy="892.5" r="5.5" fill="#EFEFEF"/>
<circle cx="959.5" cy="892.5" r="5.5" fill="#EFEFEF"/>
<circle cx="1012.5" cy="892.5" r="5.5" fill="#EFEFEF"/>
<circle cx="1065.5" cy="892.5" r="5.5" fill="#EFEFEF"/>
<circle cx="1118.5" cy="892.5" r="5.5" fill="#EFEFEF"/>
<circle cx="1171.5" cy="892.5" r="5.5" fill="#EFEFEF"/>
<circle cx="1224.5" cy="892.5" r="5.5" fill="#EFEFEF"/>
<circle cx="1277.5" cy="892.5" r="5.5" fill="#EFEFEF"/>
<circle cx="1330.5" cy="892.5" r="5.5" fill="#EFEFEF"/>
<circle cx="1383.5" cy="892.5" r="5.5" fill="#EFEFEF"/>
<circle cx="1436.5" cy="892.5" r="5.5" fill="#EFEFEF"/>
<circle cx="1489.5" cy="892.5" r="5.5" fill="#EFEFEF"/>
<circle cx="5.5" cy="945.5" r="5.5" fill="#EFEFEF"/>
<circle cx="58.5" cy="945.5" r="5.5" fill="#EFEFEF"/>
<circle cx="111.5" cy="945.5" r="5.5" fill="#EFEFEF"/>
<circle cx="164.5" cy="945.5" r="5.5" fill="#EFEFEF"/>
<circle cx="217.5" cy="945.5" r="5.5" fill="#EFEFEF"/>
<circle cx="270.5" cy="945.5" r="5.5" fill="#EFEFEF"/>
<circle cx="323.5" cy="945.5" r="5.5" fill="#EFEFEF"/>
<circle cx="376.5" cy="945.5" r="5.5" fill="#EFEFEF"/>
<circle cx="429.5" cy="945.5" r="5.5" fill="#EFEFEF"/>
<circle cx="482.5" cy="945.5" r="5.5" fill="#EFEFEF"/>
<circle cx="535.5" cy="945.5" r="5.5" fill="#EFEFEF"/>
<circle cx="588.5" cy="945.5" r="5.5" fill="#EFEFEF"/>
<circle cx="641.5" cy="945.5" r="5.5" fill="#EFEFEF"/>
<circle cx="694.5" cy="945.5" r="5.5" fill="#EFEFEF"/>
<circle cx="747.5" cy="945.5" r="5.5" fill="#EFEFEF"/>
<circle cx="800.5" cy="945.5" r="5.5" fill="#EFEFEF"/>
<circle cx="853.5" cy="945.5" r="5.5" fill="#EFEFEF"/>
<circle cx="906.5" cy="945.5" r="5.5" fill="#EFEFEF"/>
<circle cx="959.5" cy="945.5" r="5.5" fill="#EFEFEF"/>
<circle cx="1012.5" cy="945.5" r="5.5" fill="#EFEFEF"/>
<circle cx="1065.5" cy="945.5" r="5.5" fill="#EFEFEF"/>
<circle cx="1118.5" cy="945.5" r="5.5" fill="#EFEFEF"/>
<circle cx="1171.5" cy="945.5" r="5.5" fill="#EFEFEF"/>
<circle cx="1224.5" cy="945.5" r="5.5" fill="#EFEFEF"/>
<circle cx="1277.5" cy="945.5" r="5.5" fill="#EFEFEF"/>
<circle cx="1330.5" cy="945.5" r="5.5" fill="#EFEFEF"/>
<circle cx="1383.5" cy="945.5" r="5.5" fill="#EFEFEF"/>
<circle cx="1436.5" cy="945.5" r="5.5" fill="#EFEFEF"/>
<circle cx="1489.5" cy="945.5" r="5.5" fill="#EFEFEF"/>
</svg>
