<svg width="385" height="79" viewBox="0 0 385 79" fill="none" xmlns="http://www.w3.org/2000/svg">
<path d="M36.4133 29.3649L27.04 30.3875C26.7747 29.4422 26.316 28.5515 25.6627 27.7182C25.0093 26.8849 24.1333 26.2129 23.0347 25.7009C21.9373 25.1902 20.592 24.9342 19.0013 24.9342C16.8613 24.9342 15.068 25.3995 13.6187 26.3262C12.1707 27.2542 11.456 28.4569 11.4747 29.9342C11.456 31.2022 11.924 32.2342 12.8813 33.0302C13.836 33.8249 15.4227 34.4782 17.6373 34.9902L25.08 36.5809C29.208 37.4702 32.28 38.8809 34.2973 40.8129C36.3133 42.7449 37.332 45.2715 37.3507 48.3969C37.332 51.1422 36.532 53.5622 34.9507 55.6542C33.3693 57.7462 31.1773 59.3795 28.376 60.5542C25.572 61.7262 22.3533 62.3142 18.7187 62.3142C13.3773 62.3142 9.08 61.1929 5.82266 58.9489C2.56533 56.7035 0.624 53.5769 0 49.5609L10.0253 48.5942C10.48 50.5649 11.4453 52.0502 12.9227 53.0542C14.4 54.0582 16.3227 54.5609 18.6893 54.5609C21.132 54.5609 23.096 54.0582 24.5827 53.0542C26.0693 52.0502 26.8133 50.8102 26.8133 49.3342C26.8133 48.0835 26.3333 47.0515 25.3787 46.2369C24.4213 45.4222 22.94 44.7995 20.9333 44.3635L13.492 42.8009C9.30533 41.9302 6.21066 40.4569 4.20266 38.3835C2.196 36.3102 1.20133 33.6822 1.22133 30.5022C1.20133 27.8129 1.936 25.4795 3.42133 23.5009C4.90933 21.5222 6.98267 19.9875 9.64267 18.8982C12.3027 17.8089 15.376 17.2662 18.8587 17.2662C23.972 17.2662 28 18.3542 30.9453 20.5315C33.8893 22.7089 35.712 25.6542 36.4133 29.3649Z" fill="white"/>
<path d="M64.9302 54.0765C67.2395 54.0765 69.1715 53.4379 70.7249 52.1605C72.2769 50.8819 73.4369 49.1632 74.2035 47.0045C74.9715 44.8459 75.3542 42.4419 75.3542 39.7899C75.3542 37.1192 74.9715 34.7005 74.2035 32.5325C73.4369 30.3645 72.2769 28.6365 70.7249 27.3485C69.1715 26.0619 67.2395 25.4165 64.9302 25.4165C62.5635 25.4165 60.5982 26.0619 59.0369 27.3485C57.4742 28.6365 56.3089 30.3645 55.5422 32.5325C54.7755 34.7005 54.3929 37.1192 54.3929 39.7899C54.3929 42.4419 54.7755 44.8459 55.5422 47.0045C56.3089 49.1632 57.4742 50.8819 59.0369 52.1605C60.5982 53.4379 62.5635 54.0765 64.9302 54.0765ZM64.8729 62.3152C60.6129 62.3152 56.9195 61.3779 53.7955 59.5019C50.6715 57.6272 48.2515 55.0045 46.5382 51.6339C44.8235 48.2645 43.9675 44.3259 43.9675 39.8179C43.9675 35.3112 44.8235 31.3632 46.5382 27.9739C48.2515 24.5845 50.6715 21.9512 53.7955 20.0765C56.9195 18.2032 60.6129 17.2659 64.8729 17.2659C69.1329 17.2659 72.8262 18.2032 75.9515 20.0765C79.0755 21.9512 81.4942 24.5845 83.2075 27.9739C84.9222 31.3632 85.7795 35.3112 85.7795 39.8179C85.7795 44.3259 84.9222 48.2645 83.2075 51.6339C81.4942 55.0045 79.0755 57.6272 75.9515 59.5019C72.8262 61.3779 69.1329 62.3152 64.8729 62.3152" fill="white"/>
<path d="M128.952 29.3649L119.578 30.3875C119.313 29.4422 118.854 28.5515 118.201 27.7182C117.548 26.8849 116.672 26.2129 115.573 25.7009C114.476 25.1902 113.13 24.9342 111.54 24.9342C109.4 24.9342 107.606 25.3995 106.158 26.3262C104.709 27.2542 103.994 28.4569 104.013 29.9342C103.994 31.2022 104.462 32.2342 105.42 33.0302C106.374 33.8249 107.961 34.4782 110.176 34.9902L117.618 36.5809C121.746 37.4702 124.818 38.8809 126.836 40.8129C128.852 42.7449 129.87 45.2715 129.889 48.3969C129.87 51.1422 129.07 53.5622 127.489 55.6542C125.908 57.7462 123.716 59.3795 120.914 60.5542C118.11 61.7262 114.892 62.3142 111.257 62.3142C105.916 62.3142 101.618 61.1929 98.361 58.9489C95.1037 56.7035 93.1623 53.5769 92.5383 49.5609L102.564 48.5942C103.018 50.5649 103.984 52.0502 105.461 53.0542C106.938 54.0582 108.861 54.5609 111.228 54.5609C113.67 54.5609 115.634 54.0582 117.121 53.0542C118.608 52.0502 119.352 50.8102 119.352 49.3342C119.352 48.0835 118.872 47.0515 117.917 46.2369C116.96 45.4222 115.478 44.7995 113.472 44.3635L106.03 42.8009C101.844 41.9302 98.749 40.4569 96.741 38.3835C94.7343 36.3102 93.7397 33.6822 93.7597 30.5022C93.7397 27.8129 94.4743 25.4795 95.9597 23.5009C97.4477 21.5222 99.521 19.9875 102.181 18.8982C104.841 17.8089 107.914 17.2662 111.397 17.2662C116.51 17.2662 120.538 18.3542 123.484 20.5315C126.428 22.7089 128.25 25.6542 128.952 29.3649Z" fill="white"/>
<path d="M239.47 61.4624H229.187V3.29173H239.47V61.4624Z" fill="white"/>
<path d="M283.808 39.6474C283.808 42.4701 284.211 44.9408 285.015 47.0621C285.82 49.1821 286.986 50.8341 288.51 52.0181C290.034 53.2021 291.886 53.7941 294.062 53.7941C296.335 53.7941 298.236 53.1821 299.772 51.9608C301.306 50.7394 302.464 49.0634 303.251 46.9328C304.036 44.8034 304.43 42.3741 304.43 39.6474C304.43 36.9408 304.042 34.5354 303.266 32.4328C302.49 30.3314 301.335 28.6834 299.8 27.4914C298.267 26.2981 296.352 25.7021 294.062 25.7021C291.866 25.7021 290.002 26.2794 288.466 27.4341C286.932 28.5901 285.774 30.2074 284.987 32.2914C284.202 34.3741 283.808 36.8261 283.808 39.6474ZM273.726 61.4621V3.29143H284.007V25.0488H284.434C284.963 23.9874 285.712 22.8568 286.676 21.6541C287.643 20.4514 288.948 19.4208 290.598 18.5568C292.244 17.6968 294.346 17.2661 296.902 17.2661C300.274 17.2661 303.318 18.1221 306.035 19.8354C308.751 21.5501 310.911 24.0781 312.51 27.4194C314.111 30.7621 314.911 34.8568 314.911 39.7048C314.911 44.4954 314.124 48.5674 312.555 51.9194C310.982 55.2701 308.84 57.8261 306.134 59.5874C303.427 61.3488 300.358 62.2288 296.932 62.2288C294.431 62.2288 292.358 61.8128 290.711 60.9794C289.063 60.1461 287.743 59.1381 286.748 57.9541C285.754 56.7714 284.982 55.6488 284.434 54.5888H283.836V61.4621H273.726Z" fill="white"/>
<path d="M323.687 17.8329H333.97V61.4609H323.687V17.8329Z" fill="white"/>
<path d="M363.624 54.0765C365.934 54.0765 367.866 53.4379 369.418 52.1605C370.972 50.8819 372.132 49.1632 372.898 47.0045C373.665 44.8459 374.048 42.4419 374.048 39.7899C374.048 37.1192 373.665 34.7005 372.898 32.5325C372.132 30.3645 370.972 28.6365 369.418 27.3485C367.866 26.0619 365.934 25.4165 363.624 25.4165C361.257 25.4165 359.292 26.0619 357.73 27.3485C356.168 28.6365 355.004 30.3645 354.236 32.5325C353.469 34.7005 353.086 37.1192 353.086 39.7899C353.086 42.4419 353.469 44.8459 354.236 47.0045C355.004 49.1632 356.168 50.8819 357.73 52.1605C359.292 53.4379 361.257 54.0765 363.624 54.0765ZM363.568 62.3152C359.306 62.3152 355.614 61.3779 352.489 59.5019C349.366 57.6272 346.946 55.0045 345.233 51.6339C343.518 48.2645 342.662 44.3259 342.662 39.8179C342.662 35.3112 343.518 31.3632 345.233 27.9739C346.946 24.5845 349.366 21.9512 352.489 20.0765C355.614 18.2032 359.306 17.2659 363.568 17.2659C367.828 17.2659 371.52 18.2032 374.645 20.0765C377.769 21.9512 380.188 24.5845 381.902 27.9739C383.616 31.3632 384.473 35.3112 384.473 39.8179C384.473 44.3259 383.616 48.2645 381.902 51.6339C380.188 55.0045 377.769 57.6272 374.645 59.5019C371.52 61.3779 367.828 62.3152 363.568 62.3152" fill="white"/>
<path d="M208.566 45.8109C208.566 47.4202 208.154 48.9082 207.332 50.2709C206.506 51.6336 205.337 52.7269 203.822 53.5522C202.309 54.3762 200.518 54.7869 198.456 54.7869C196.316 54.7869 194.553 54.3042 193.172 53.3389C191.789 52.3736 191.098 50.9442 191.098 49.0496C191.098 47.7256 191.449 46.6402 192.149 45.7962C192.849 44.9549 193.806 44.2962 195.018 43.8242C196.229 43.3496 197.602 43.0096 199.137 42.8002C199.818 42.7056 200.622 42.5936 201.55 42.4589C202.48 42.3282 203.417 42.1749 204.364 42.0056C205.309 41.8349 206.166 41.6362 206.933 41.4096C207.701 41.1816 208.245 40.9362 208.566 40.6709V45.8109ZM208.121 17.8336V33.5242C207.948 33.7896 207.733 34.0256 207.444 34.2082C206.716 34.6722 205.556 35.0136 203.965 35.2309C202.373 35.4482 200.301 35.6896 197.745 35.9549C195.624 36.1816 193.573 36.5469 191.594 37.0482C189.617 37.5509 187.842 38.2842 186.269 39.2496C184.698 40.2162 183.457 41.5056 182.548 43.1136C181.64 44.7229 181.185 46.7589 181.185 49.2202C181.185 52.0789 181.824 54.4856 183.102 56.4349C184.381 58.3856 186.122 59.8576 188.329 60.8509C190.534 61.8442 193.02 62.3416 195.784 62.3416C198.057 62.3416 200.04 62.0256 201.736 61.3922C203.43 60.7562 204.841 59.9136 205.968 58.8642C207.094 57.8122 207.97 56.6816 208.594 55.4696H208.936V61.4616H218.82V36.0922V32.2629V17.8336H208.121Z" fill="white"/>
<path d="M166.417 17.8336L156.334 50.7816H155.879L145.823 17.8336H134.917L145.823 48.5376L149.895 60.0003C150.439 61.5309 150.426 63.2056 149.857 64.7283C148.873 67.1323 147.618 68.5496 146.094 68.9749C146.009 69.0003 145.911 69.0029 145.823 69.0243V77.6936C148.062 77.5909 150.038 77.1776 151.717 76.4163C153.658 75.5363 155.301 74.2736 156.646 72.6243C157.99 70.9776 159.069 69.0176 159.883 66.7456L177.41 17.8896L166.417 17.8336Z" fill="white"/>
<path d="M134.274 73.0491L133.518 72.0811L196.03 23.2491L256.329 55.1477L328.495 5.55307L329.191 6.5664L256.413 56.5837L196.161 24.7091L134.274 73.0491Z" fill="white"/>
<path d="M133.894 72.1287L134.321 72.674L196.131 24.3914L196.285 24.4727L256.394 56.2714L328.819 6.49803L328.426 5.92603L256.346 55.462L196.059 23.5674L133.894 72.1287ZM134.227 73.426L133.142 72.0367L133.353 71.8714L196.003 22.9314L256.31 54.8367L328.563 5.18203L329.563 6.63536L329.342 6.78736L256.431 56.8967L196.187 25.0274L134.227 73.426Z" fill="white"/>
<path d="M256.371 61.9268C254.7 61.9268 253.267 61.3361 252.074 60.1561C250.88 58.9761 250.291 57.5361 250.311 55.8388C250.291 54.1788 250.88 52.7574 252.074 51.5761C253.267 50.3974 254.7 49.8068 256.371 49.8068C257.986 49.8068 259.396 50.3974 260.599 51.5761C261.802 52.7574 262.411 54.1788 262.431 55.8388C262.411 56.9641 262.123 57.9881 261.564 58.9108C261.003 59.8334 260.27 60.5654 259.359 61.1108C258.451 61.6548 257.454 61.9268 256.371 61.9268Z" fill="white"/>
<path d="M328.858 12.1201C327.181 12.1201 325.747 11.5295 324.562 10.3468C323.377 9.16545 322.783 7.74145 322.783 6.07612C322.783 4.39078 323.382 2.95612 324.577 1.77345C325.773 0.592118 327.199 0.000117706 328.858 0.000117706C330.517 0.000117706 331.938 0.592118 333.123 1.77345C334.311 2.95612 334.903 4.39078 334.903 6.07612C334.903 7.74145 334.311 9.16545 333.123 10.3468C331.938 11.5295 330.517 12.1201 328.858 12.1201Z" fill="white"/>
<path d="M133.896 78.1924C132.344 78.1924 131.014 77.6444 129.907 76.5497C128.798 75.4524 128.252 74.1164 128.268 72.5404C128.252 70.9977 128.798 69.6791 129.907 68.5831C131.014 67.4871 132.344 66.9391 133.896 66.9391C135.396 66.9391 136.704 67.4871 137.823 68.5831C138.939 69.6791 139.506 70.9977 139.523 72.5404C139.506 73.5857 139.238 74.5364 138.718 75.3924C138.198 76.2497 137.516 76.9297 136.672 77.435C135.827 77.9404 134.902 78.1924 133.896 78.1924Z" fill="white"/>
<path d="M195.663 30.9241C193.748 30.9241 192.107 30.2467 190.739 28.8947C189.371 27.5427 188.696 25.8934 188.719 23.9467C188.696 22.0454 189.371 20.4174 190.739 19.0627C192.107 17.7107 193.748 17.0347 195.663 17.0347C197.515 17.0347 199.131 17.7107 200.509 19.0627C201.887 20.4174 202.585 22.0454 202.607 23.9467C202.585 25.2374 202.255 26.4107 201.613 27.4681C200.969 28.5254 200.131 29.3654 199.088 29.9881C198.047 30.6121 196.905 30.9241 195.663 30.9241Z" fill="white"/>
</svg>
