<svg width="385" height="79" viewBox="0 0 385 79" fill="none" xmlns="http://www.w3.org/2000/svg">
<path d="M36.6876 29.9559L27.3143 30.9785C27.0489 30.0332 26.5903 29.1425 25.9369 28.3092C25.2836 27.4759 24.4076 26.8039 23.3089 26.2919C22.2116 25.7812 20.8663 25.5252 19.2756 25.5252C17.1356 25.5252 15.3423 25.9905 13.8929 26.9172C12.4449 27.8452 11.7303 29.0479 11.7489 30.5252C11.7303 31.7932 12.1983 32.8252 13.1556 33.6212C14.1103 34.4159 15.6969 35.0692 17.9116 35.5812L25.3543 37.1719C29.4823 38.0612 32.5543 39.4719 34.5716 41.4039C36.5876 43.3359 37.6063 45.8625 37.6249 48.9879C37.6063 51.7332 36.8063 54.1532 35.2249 56.2452C33.6436 58.3372 31.4516 59.9705 28.6503 61.1452C25.8463 62.3172 22.6276 62.9052 18.9929 62.9052C13.6516 62.9052 9.35426 61.7839 6.09693 59.5399C2.83959 57.2945 0.898261 54.1679 0.274261 50.1519L10.2996 49.1852C10.7543 51.1559 11.7196 52.6412 13.1969 53.6452C14.6743 54.6492 16.5969 55.1519 18.9636 55.1519C21.4063 55.1519 23.3703 54.6492 24.8569 53.6452C26.3436 52.6412 27.0876 51.4012 27.0876 49.9252C27.0876 48.6745 26.6076 47.6425 25.6529 46.8279C24.6956 46.0132 23.2143 45.3905 21.2076 44.9545L13.7663 43.3919C9.57959 42.5212 6.48493 41.0479 4.47693 38.9745C2.47026 36.9012 1.4756 34.2732 1.4956 31.0932C1.4756 28.4039 2.21026 26.0705 3.69559 24.0919C5.18359 22.1132 7.25693 20.5785 9.91693 19.4892C12.5769 18.3999 15.6503 17.8572 19.1329 17.8572C24.2463 17.8572 28.2743 18.9452 31.2196 21.1225C34.1636 23.2999 35.9863 26.2452 36.6876 29.9559Z" fill="black"/>
<path d="M65.2045 54.6675C67.5139 54.6675 69.4459 54.0288 70.9992 52.7515C72.5512 51.4728 73.7112 49.7541 74.4779 47.5955C75.2458 45.4368 75.6285 43.0328 75.6285 40.3808C75.6285 37.7101 75.2458 35.2915 74.4779 33.1235C73.7112 30.9555 72.5512 29.2275 70.9992 27.9395C69.4459 26.6528 67.5139 26.0075 65.2045 26.0075C62.8379 26.0075 60.8725 26.6528 59.3112 27.9395C57.7485 29.2275 56.5832 30.9555 55.8165 33.1235C55.0499 35.2915 54.6672 37.7101 54.6672 40.3808C54.6672 43.0328 55.0499 45.4368 55.8165 47.5955C56.5832 49.7541 57.7485 51.4728 59.3112 52.7515C60.8725 54.0288 62.8379 54.6675 65.2045 54.6675ZM65.1472 62.9061C60.8872 62.9061 57.1939 61.9688 54.0699 60.0928C50.9459 58.2181 48.5259 55.5955 46.8125 52.2248C45.0979 48.8555 44.2419 44.9168 44.2419 40.4088C44.2419 35.9021 45.0979 31.9541 46.8125 28.5648C48.5259 25.1755 50.9459 22.5421 54.0699 20.6675C57.1939 18.7941 60.8872 17.8568 65.1472 17.8568C69.4072 17.8568 73.1005 18.7941 76.2258 20.6675C79.3498 22.5421 81.7685 25.1755 83.4818 28.5648C85.1965 31.9541 86.0539 35.9021 86.0539 40.4088C86.0539 44.9168 85.1965 48.8555 83.4818 52.2248C81.7685 55.5955 79.3498 58.2181 76.2258 60.0928C73.1005 61.9688 69.4072 62.9061 65.1472 62.9061" fill="black"/>
<path d="M129.226 29.9559L119.853 30.9785C119.587 30.0332 119.129 29.1425 118.475 28.3092C117.822 27.4759 116.946 26.8039 115.847 26.2919C114.75 25.7812 113.405 25.5252 111.814 25.5252C109.674 25.5252 107.881 25.9905 106.433 26.9172C104.983 27.8452 104.269 29.0479 104.287 30.5252C104.269 31.7932 104.737 32.8252 105.694 33.6212C106.649 34.4159 108.235 35.0692 110.45 35.5812L117.893 37.1719C122.021 38.0612 125.093 39.4719 127.11 41.4039C129.126 43.3359 130.145 45.8625 130.163 48.9879C130.145 51.7332 129.345 54.1532 127.763 56.2452C126.182 58.3372 123.99 59.9705 121.189 61.1452C118.385 62.3172 115.166 62.9052 111.531 62.9052C106.19 62.9052 101.893 61.7839 98.6353 59.5399C95.378 57.2945 93.4367 54.1679 92.8127 50.1519L102.838 49.1852C103.293 51.1559 104.258 52.6412 105.735 53.6452C107.213 54.6492 109.135 55.1519 111.502 55.1519C113.945 55.1519 115.909 54.6492 117.395 53.6452C118.882 52.6412 119.626 51.4012 119.626 49.9252C119.626 48.6745 119.146 47.6425 118.191 46.8279C117.234 46.0132 115.753 45.3905 113.746 44.9545L106.305 43.3919C102.118 42.5212 99.0233 41.0479 97.0153 38.9745C95.0087 36.9012 94.014 34.2732 94.034 31.0932C94.014 28.4039 94.7487 26.0705 96.234 24.0919C97.722 22.1132 99.7953 20.5785 102.455 19.4892C105.115 18.3999 108.189 17.8572 111.671 17.8572C116.785 17.8572 120.813 18.9452 123.758 21.1225C126.702 23.2999 128.525 26.2452 129.226 29.9559Z" fill="black"/>
<path d="M239.744 62.0533H229.461V3.88267H239.744V62.0533Z" fill="black"/>
<path d="M284.083 40.2384C284.083 43.0611 284.485 45.5317 285.289 47.6531C286.095 49.7731 287.26 51.4251 288.784 52.6091C290.308 53.7931 292.16 54.3851 294.336 54.3851C296.609 54.3851 298.511 53.7731 300.047 52.5517C301.58 51.3304 302.739 49.6544 303.525 47.5237C304.311 45.3944 304.704 42.9651 304.704 40.2384C304.704 37.5317 304.316 35.1264 303.54 33.0237C302.764 30.9224 301.609 29.2744 300.075 28.0824C298.541 26.8891 296.627 26.2931 294.336 26.2931C292.14 26.2931 290.276 26.8704 288.74 28.0251C287.207 29.1811 286.048 30.7984 285.261 32.8824C284.476 34.9651 284.083 37.4171 284.083 40.2384ZM274 62.0531V3.88241H284.281V25.6397H284.708C285.237 24.5784 285.987 23.4478 286.951 22.2451C287.917 21.0424 289.223 20.0117 290.872 19.1477C292.519 18.2877 294.62 17.8571 297.176 17.8571C300.548 17.8571 303.592 18.7131 306.309 20.4264C309.025 22.1411 311.185 24.6691 312.784 28.0104C314.385 31.3531 315.185 35.4477 315.185 40.2957C315.185 45.0864 314.399 49.1584 312.829 52.5104C311.256 55.8611 309.115 58.4171 306.408 60.1784C303.701 61.9397 300.632 62.8197 297.207 62.8197C294.705 62.8197 292.632 62.4037 290.985 61.5704C289.337 60.7371 288.017 59.7291 287.023 58.5451C286.028 57.3624 285.256 56.2397 284.708 55.1797H284.111V62.0531H274Z" fill="black"/>
<path d="M323.961 18.424H334.244V62.052H323.961V18.424Z" fill="black"/>
<path d="M363.898 54.6675C366.209 54.6675 368.141 54.0288 369.693 52.7515C371.246 51.4728 372.406 49.7541 373.173 47.5955C373.939 45.4368 374.322 43.0328 374.322 40.3808C374.322 37.7101 373.939 35.2915 373.173 33.1235C372.406 30.9555 371.246 29.2275 369.693 27.9395C368.141 26.6528 366.209 26.0075 363.898 26.0075C361.531 26.0075 359.566 26.6528 358.005 27.9395C356.442 29.2275 355.278 30.9555 354.51 33.1235C353.743 35.2915 353.361 37.7101 353.361 40.3808C353.361 43.0328 353.743 45.4368 354.51 47.5955C355.278 49.7541 356.442 51.4728 358.005 52.7515C359.566 54.0288 361.531 54.6675 363.898 54.6675ZM363.842 62.9061C359.581 62.9061 355.889 61.9688 352.763 60.0928C349.641 58.2181 347.221 55.5955 345.507 52.2248C343.793 48.8555 342.937 44.9168 342.937 40.4088C342.937 35.9021 343.793 31.9541 345.507 28.5648C347.221 25.1755 349.641 22.5421 352.763 20.6675C355.889 18.7941 359.581 17.8568 363.842 17.8568C368.102 17.8568 371.794 18.7941 374.919 20.6675C378.043 22.5421 380.462 25.1755 382.177 28.5648C383.89 31.9541 384.747 35.9021 384.747 40.4088C384.747 44.9168 383.89 48.8555 382.177 52.2248C380.462 55.5955 378.043 58.2181 374.919 60.0928C371.794 61.9688 368.102 62.9061 363.842 62.9061" fill="black"/>
<path d="M208.841 46.4019C208.841 48.0112 208.429 49.4992 207.606 50.8619C206.781 52.2245 205.611 53.3179 204.097 54.1432C202.583 54.9672 200.793 55.3779 198.73 55.3779C196.59 55.3779 194.827 54.8952 193.446 53.9299C192.063 52.9645 191.373 51.5352 191.373 49.6405C191.373 48.3165 191.723 47.2312 192.423 46.3872C193.123 45.5459 194.081 44.8872 195.293 44.4152C196.503 43.9405 197.877 43.6005 199.411 43.3912C200.093 43.2965 200.897 43.1845 201.825 43.0499C202.754 42.9192 203.691 42.7659 204.638 42.5965C205.583 42.4259 206.441 42.2272 207.207 42.0005C207.975 41.7725 208.519 41.5272 208.841 41.2619V46.4019ZM208.395 18.4245V34.1152C208.222 34.3805 208.007 34.6165 207.718 34.7992C206.99 35.2632 205.83 35.6045 204.239 35.8219C202.647 36.0392 200.575 36.2805 198.019 36.5459C195.898 36.7725 193.847 37.1379 191.869 37.6392C189.891 38.1419 188.117 38.8752 186.543 39.8405C184.973 40.8072 183.731 42.0965 182.822 43.7045C181.914 45.3139 181.459 47.3499 181.459 49.8112C181.459 52.6699 182.098 55.0765 183.377 57.0259C184.655 58.9765 186.397 60.4485 188.603 61.4419C190.809 62.4352 193.294 62.9325 196.058 62.9325C198.331 62.9325 200.314 62.6165 202.01 61.9832C203.705 61.3472 205.115 60.5045 206.242 59.4552C207.369 58.4032 208.245 57.2725 208.869 56.0605H209.21V62.0525H219.094V36.6832V32.8539V18.4245H208.395Z" fill="black"/>
<path d="M166.691 18.4247L156.608 51.3727H156.154L146.098 18.4247H135.191L146.098 49.1287L150.17 60.5913C150.714 62.122 150.7 63.7967 150.131 65.3194C149.147 67.7234 147.892 69.1407 146.368 69.566C146.283 69.5913 146.186 69.594 146.098 69.6154V78.2847C148.336 78.182 150.312 77.7687 151.991 77.0073C153.932 76.1273 155.575 74.8647 156.92 73.2153C158.264 71.5687 159.343 69.6087 160.158 67.3367L177.684 18.4807L166.691 18.4247Z" fill="black"/>
<path d="M134.548 73.6401L133.792 72.6721L196.304 23.8401L256.603 55.7388L328.77 6.14413L329.466 7.15747L256.687 57.1748L196.435 25.3001L134.548 73.6401Z" fill="black"/>
<path d="M134.168 72.7196L134.595 73.265L196.405 24.9823L196.559 25.0636L256.668 56.8623L329.093 7.08896L328.7 6.51696L256.62 56.053L196.333 24.1583L134.168 72.7196ZM134.501 74.017L133.416 72.6276L133.627 72.4623L196.277 23.5223L256.584 55.4276L328.837 5.77296L329.837 7.22629L329.616 7.37829L256.705 57.4876L196.461 25.6183L134.501 74.017Z" fill="black"/>
<path d="M256.645 62.5177C254.975 62.5177 253.541 61.9271 252.348 60.7471C251.155 59.5671 250.565 58.1271 250.585 56.4297C250.565 54.7697 251.155 53.3484 252.348 52.1671C253.541 50.9884 254.975 50.3977 256.645 50.3977C258.26 50.3977 259.671 50.9884 260.873 52.1671C262.076 53.3484 262.685 54.7697 262.705 56.4297C262.685 57.5551 262.397 58.5791 261.839 59.5017C261.277 60.4244 260.544 61.1564 259.633 61.7017C258.725 62.2457 257.728 62.5177 256.645 62.5177Z" fill="#FF8976"/>
<path d="M329.132 12.7111C327.455 12.7111 326.022 12.1204 324.836 10.9377C323.651 9.75641 323.058 8.33241 323.058 6.66708C323.058 4.98174 323.656 3.54708 324.851 2.36441C326.047 1.18308 327.474 0.591075 329.132 0.591075C330.791 0.591075 332.212 1.18308 333.398 2.36441C334.586 3.54708 335.178 4.98174 335.178 6.66708C335.178 8.33241 334.586 9.75641 333.398 10.9377C332.212 12.1204 330.791 12.7111 329.132 12.7111Z" fill="#4B6DFF"/>
<path d="M134.171 78.7834C132.619 78.7834 131.288 78.2354 130.181 77.1407C129.072 76.0434 128.527 74.7074 128.543 73.1314C128.527 71.5887 129.072 70.27 130.181 69.174C131.288 68.078 132.619 67.53 134.171 67.53C135.671 67.53 136.979 68.078 138.097 69.174C139.213 70.27 139.78 71.5887 139.797 73.1314C139.78 74.1767 139.512 75.1274 138.992 75.9834C138.472 76.8407 137.791 77.5207 136.947 78.026C136.101 78.5314 135.176 78.7834 134.171 78.7834Z" fill="#FF0049"/>
<path d="M195.937 31.5151C194.022 31.5151 192.381 30.8377 191.013 29.4857C189.645 28.1337 188.97 26.4844 188.993 24.5377C188.97 22.6364 189.645 21.0084 191.013 19.6537C192.381 18.3017 194.022 17.6257 195.937 17.6257C197.789 17.6257 199.405 18.3017 200.784 19.6537C202.161 21.0084 202.86 22.6364 202.881 24.5377C202.86 25.8284 202.529 27.0017 201.888 28.0591C201.244 29.1164 200.405 29.9564 199.362 30.5791C198.321 31.2031 197.18 31.5151 195.937 31.5151Z" fill="#47B8F8"/>
</svg>
