<svg width="453" height="453" viewBox="0 0 453 453" fill="none" xmlns="http://www.w3.org/2000/svg">
<circle cx="226.5" cy="226.5" r="226.5" fill="#CCD6FF"/>
<path d="M70.4133 216.172L61.04 217.195C60.7747 216.25 60.316 215.359 59.6627 214.526C59.0093 213.692 58.1333 213.02 57.0347 212.508C55.9373 211.998 54.592 211.742 53.0013 211.742C50.8613 211.742 49.068 212.207 47.6187 213.134C46.1707 214.062 45.456 215.264 45.4747 216.742C45.456 218.01 45.924 219.042 46.8813 219.838C47.836 220.632 49.4227 221.286 51.6373 221.798L59.08 223.388C63.208 224.278 66.28 225.688 68.2973 227.62C70.3133 229.552 71.332 232.079 71.3507 235.204C71.332 237.95 70.532 240.37 68.9507 242.462C67.3693 244.554 65.1773 246.187 62.376 247.362C59.572 248.534 56.3533 249.122 52.7187 249.122C47.3773 249.122 43.08 248 39.8227 245.756C36.5653 243.511 34.624 240.384 34 236.368L44.0253 235.402C44.48 237.372 45.4453 238.858 46.9227 239.862C48.4 240.866 50.3227 241.368 52.6893 241.368C55.132 241.368 57.096 240.866 58.5827 239.862C60.0693 238.858 60.8133 237.618 60.8133 236.142C60.8133 234.891 60.3333 233.859 59.3787 233.044C58.4213 232.23 56.94 231.607 54.9333 231.171L47.492 229.608C43.3053 228.738 40.2107 227.264 38.2027 225.191C36.196 223.118 35.2013 220.49 35.2213 217.31C35.2013 214.62 35.936 212.287 37.4213 210.308C38.9093 208.33 40.9827 206.795 43.6427 205.706C46.3027 204.616 49.376 204.074 52.8587 204.074C57.972 204.074 62 205.162 64.9453 207.339C67.8893 209.516 69.712 212.462 70.4133 216.172Z" fill="black"/>
<path d="M98.9302 240.884C101.24 240.884 103.172 240.245 104.725 238.968C106.277 237.689 107.437 235.971 108.204 233.812C108.972 231.653 109.354 229.249 109.354 226.597C109.354 223.927 108.972 221.508 108.204 219.34C107.437 217.172 106.277 215.444 104.725 214.156C103.172 212.869 101.24 212.224 98.9302 212.224C96.5635 212.224 94.5982 212.869 93.0369 214.156C91.4742 215.444 90.3089 217.172 89.5422 219.34C88.7755 221.508 88.3929 223.927 88.3929 226.597C88.3929 229.249 88.7755 231.653 89.5422 233.812C90.3089 235.971 91.4742 237.689 93.0369 238.968C94.5982 240.245 96.5635 240.884 98.9302 240.884ZM98.8729 249.123C94.6129 249.123 90.9195 248.185 87.7955 246.309C84.6715 244.435 82.2515 241.812 80.5382 238.441C78.8235 235.072 77.9675 231.133 77.9675 226.625C77.9675 222.119 78.8235 218.171 80.5382 214.781C82.2515 211.392 84.6715 208.759 87.7955 206.884C90.9195 205.011 94.6129 204.073 98.8729 204.073C103.133 204.073 106.826 205.011 109.952 206.884C113.076 208.759 115.494 211.392 117.208 214.781C118.922 218.171 119.78 222.119 119.78 226.625C119.78 231.133 118.922 235.072 117.208 238.441C115.494 241.812 113.076 244.435 109.952 246.309C106.826 248.185 103.133 249.123 98.8729 249.123" fill="black"/>
<path d="M162.952 216.172L153.578 217.195C153.313 216.25 152.854 215.359 152.201 214.526C151.548 213.692 150.672 213.02 149.573 212.508C148.476 211.998 147.13 211.742 145.54 211.742C143.4 211.742 141.606 212.207 140.158 213.134C138.709 214.062 137.994 215.264 138.013 216.742C137.994 218.01 138.462 219.042 139.42 219.838C140.374 220.632 141.961 221.286 144.176 221.798L151.618 223.388C155.746 224.278 158.818 225.688 160.836 227.62C162.852 229.552 163.87 232.079 163.889 235.204C163.87 237.95 163.07 240.37 161.489 242.462C159.908 244.554 157.716 246.187 154.914 247.362C152.11 248.534 148.892 249.122 145.257 249.122C139.916 249.122 135.618 248 132.361 245.756C129.104 243.511 127.162 240.384 126.538 236.368L136.564 235.402C137.018 237.372 137.984 238.858 139.461 239.862C140.938 240.866 142.861 241.368 145.228 241.368C147.67 241.368 149.634 240.866 151.121 239.862C152.608 238.858 153.352 237.618 153.352 236.142C153.352 234.891 152.872 233.859 151.917 233.044C150.96 232.23 149.478 231.607 147.472 231.171L140.03 229.608C135.844 228.738 132.749 227.264 130.741 225.191C128.734 223.118 127.74 220.49 127.76 217.31C127.74 214.62 128.474 212.287 129.96 210.308C131.448 208.33 133.521 206.795 136.181 205.706C138.841 204.616 141.914 204.074 145.397 204.074C150.51 204.074 154.538 205.162 157.484 207.339C160.428 209.516 162.25 212.462 162.952 216.172Z" fill="black"/>
<path d="M273.47 248.27H263.187V190.099H273.47V248.27Z" fill="black"/>
<path d="M317.808 226.455C317.808 229.278 318.211 231.748 319.015 233.87C319.82 235.99 320.986 237.642 322.51 238.826C324.034 240.01 325.886 240.602 328.062 240.602C330.335 240.602 332.236 239.99 333.772 238.768C335.306 237.547 336.464 235.871 337.251 233.74C338.036 231.611 338.43 229.182 338.43 226.455C338.43 223.748 338.042 221.343 337.266 219.24C336.49 217.139 335.335 215.491 333.8 214.299C332.267 213.106 330.352 212.51 328.062 212.51C325.866 212.51 324.002 213.087 322.466 214.242C320.932 215.398 319.774 217.015 318.987 219.099C318.202 221.182 317.808 223.634 317.808 226.455ZM307.726 248.27V190.099H318.007V211.856H318.434C318.963 210.795 319.712 209.664 320.676 208.462C321.643 207.259 322.948 206.228 324.598 205.364C326.244 204.504 328.346 204.074 330.902 204.074C334.274 204.074 337.318 204.93 340.035 206.643C342.751 208.358 344.911 210.886 346.51 214.227C348.111 217.57 348.911 221.664 348.911 226.512C348.911 231.303 348.124 235.375 346.555 238.727C344.982 242.078 342.84 244.634 340.134 246.395C337.427 248.156 334.358 249.036 330.932 249.036C328.431 249.036 326.358 248.62 324.711 247.787C323.063 246.954 321.743 245.946 320.748 244.762C319.754 243.579 318.982 242.456 318.434 241.396H317.836V248.27H307.726Z" fill="black"/>
<path d="M357.687 204.641H367.97V248.269H357.687V204.641Z" fill="black"/>
<path d="M397.624 240.884C399.934 240.884 401.866 240.245 403.418 238.968C404.972 237.689 406.132 235.971 406.898 233.812C407.665 231.653 408.048 229.249 408.048 226.597C408.048 223.927 407.665 221.508 406.898 219.34C406.132 217.172 404.972 215.444 403.418 214.156C401.866 212.869 399.934 212.224 397.624 212.224C395.257 212.224 393.292 212.869 391.73 214.156C390.168 215.444 389.004 217.172 388.236 219.34C387.469 221.508 387.086 223.927 387.086 226.597C387.086 229.249 387.469 231.653 388.236 233.812C389.004 235.971 390.168 237.689 391.73 238.968C393.292 240.245 395.257 240.884 397.624 240.884ZM397.568 249.123C393.306 249.123 389.614 248.185 386.489 246.309C383.366 244.435 380.946 241.812 379.233 238.441C377.518 235.072 376.662 231.133 376.662 226.625C376.662 222.119 377.518 218.171 379.233 214.781C380.946 211.392 383.366 208.759 386.489 206.884C389.614 205.011 393.306 204.073 397.568 204.073C401.828 204.073 405.52 205.011 408.645 206.884C411.769 208.759 414.188 211.392 415.902 214.781C417.616 218.171 418.473 222.119 418.473 226.625C418.473 231.133 417.616 235.072 415.902 238.441C414.188 241.812 411.769 244.435 408.645 246.309C405.52 248.185 401.828 249.123 397.568 249.123" fill="black"/>
<path d="M242.566 232.619C242.566 234.228 242.154 235.716 241.332 237.079C240.506 238.441 239.337 239.535 237.822 240.36C236.309 241.184 234.518 241.595 232.456 241.595C230.316 241.595 228.553 241.112 227.172 240.147C225.789 239.181 225.098 237.752 225.098 235.857C225.098 234.533 225.449 233.448 226.149 232.604C226.849 231.763 227.806 231.104 229.018 230.632C230.229 230.157 231.602 229.817 233.137 229.608C233.818 229.513 234.622 229.401 235.55 229.267C236.48 229.136 237.417 228.983 238.364 228.813C239.309 228.643 240.166 228.444 240.933 228.217C241.701 227.989 242.245 227.744 242.566 227.479V232.619ZM242.121 204.641V220.332C241.948 220.597 241.733 220.833 241.444 221.016C240.716 221.48 239.556 221.821 237.965 222.039C236.373 222.256 234.301 222.497 231.745 222.763C229.624 222.989 227.573 223.355 225.594 223.856C223.617 224.359 221.842 225.092 220.269 226.057C218.698 227.024 217.457 228.313 216.548 229.921C215.64 231.531 215.185 233.567 215.185 236.028C215.185 238.887 215.824 241.293 217.102 243.243C218.381 245.193 220.122 246.665 222.329 247.659C224.534 248.652 227.02 249.149 229.784 249.149C232.057 249.149 234.04 248.833 235.736 248.2C237.43 247.564 238.841 246.721 239.968 245.672C241.094 244.62 241.97 243.489 242.594 242.277H242.936V248.269H252.82V222.9V219.071V204.641H242.121Z" fill="black"/>
<path d="M200.417 204.641L190.334 237.589H189.879L179.823 204.641H168.917L179.823 235.345L183.895 246.808C184.439 248.339 184.426 250.013 183.857 251.536C182.873 253.94 181.618 255.357 180.094 255.783C180.009 255.808 179.911 255.811 179.823 255.832V264.501C182.062 264.399 184.038 263.985 185.717 263.224C187.658 262.344 189.301 261.081 190.646 259.432C191.99 257.785 193.069 255.825 193.883 253.553L211.41 204.697L200.417 204.641Z" fill="black"/>
<path d="M168.274 259.857L167.518 258.889L230.03 210.057L290.329 241.955L362.495 192.361L363.191 193.374L290.413 243.391L230.161 211.517L168.274 259.857Z" fill="black"/>
<path d="M167.894 258.936L168.321 259.482L230.131 211.199L230.285 211.28L290.394 243.079L362.819 193.306L362.426 192.734L290.346 242.27L230.059 210.375L167.894 258.936ZM168.227 260.234L167.142 258.844L167.353 258.679L230.003 209.739L290.31 241.644L362.563 191.99L363.563 193.443L363.342 193.595L290.431 243.704L230.187 211.835L168.227 260.234Z" fill="black"/>
<path d="M290.371 248.734C288.7 248.734 287.267 248.144 286.074 246.964C284.88 245.784 284.291 244.344 284.311 242.646C284.291 240.986 284.88 239.565 286.074 238.384C287.267 237.205 288.7 236.614 290.371 236.614C291.986 236.614 293.396 237.205 294.599 238.384C295.802 239.565 296.411 240.986 296.431 242.646C296.411 243.772 296.123 244.796 295.564 245.718C295.003 246.641 294.27 247.373 293.359 247.918C292.451 248.462 291.454 248.734 290.371 248.734Z" fill="#FF8976"/>
<path d="M362.858 198.928C361.181 198.928 359.747 198.337 358.562 197.154C357.377 195.973 356.783 194.549 356.783 192.884C356.783 191.198 357.382 189.764 358.577 188.581C359.773 187.4 361.199 186.808 362.858 186.808C364.517 186.808 365.938 187.4 367.123 188.581C368.311 189.764 368.903 191.198 368.903 192.884C368.903 194.549 368.311 195.973 367.123 197.154C365.938 198.337 364.517 198.928 362.858 198.928Z" fill="#4B6DFF"/>
<path d="M167.896 265C166.344 265 165.014 264.452 163.907 263.357C162.798 262.26 162.252 260.924 162.268 259.348C162.252 257.805 162.798 256.487 163.907 255.391C165.014 254.295 166.344 253.747 167.896 253.747C169.396 253.747 170.704 254.295 171.823 255.391C172.939 256.487 173.506 257.805 173.523 259.348C173.506 260.393 173.238 261.344 172.718 262.2C172.198 263.057 171.516 263.737 170.672 264.243C169.827 264.748 168.902 265 167.896 265Z" fill="#FF0049"/>
<path d="M229.663 217.732C227.748 217.732 226.107 217.054 224.739 215.702C223.371 214.35 222.696 212.701 222.719 210.754C222.696 208.853 223.371 207.225 224.739 205.87C226.107 204.518 227.748 203.842 229.663 203.842C231.515 203.842 233.131 204.518 234.509 205.87C235.887 207.225 236.585 208.853 236.607 210.754C236.585 212.045 236.255 213.218 235.613 214.276C234.969 215.333 234.131 216.173 233.088 216.796C232.047 217.42 230.905 217.732 229.663 217.732Z" fill="#47B8F8"/>
</svg>
