<svg width="315" height="82" viewBox="0 0 315 82" fill="none" xmlns="http://www.w3.org/2000/svg">
<path d="M112.272 28.5475C114.615 30.8907 114.615 34.6897 112.272 37.0328L69.7009 79.604C67.3579 81.947 63.5589 81.947 61.2159 79.604L34.4254 52.814C32.0822 50.471 32.0822 46.6718 34.4254 44.3286L76.9969 1.7574C79.3399 -0.5858 83.1389 -0.5858 85.4819 1.7574L112.272 28.5475Z" fill="#4A6DFF"/>
<path d="M79.6039 28.5475C81.9469 30.8907 81.9469 34.6897 79.6039 37.0328L37.0328 79.604C34.6897 81.947 30.8907 81.947 28.5475 79.604L1.7574 52.814C-0.5858 50.471 -0.5858 46.6718 1.7574 44.3286L44.3287 1.7574C46.6718 -0.5858 50.4709 -0.5858 52.8139 1.7574L79.6039 28.5475Z" fill="#2EB9FF"/>
<path d="M159.25 43.6772C161.511 44.0988 163.37 45.2296 164.827 47.0694C166.283 48.9093 167.012 51.017 167.012 53.394C167.012 55.54 166.475 57.438 165.402 59.086C164.367 60.696 162.853 61.961 160.86 62.881C158.867 63.801 156.509 64.261 153.788 64.261H136.482V24.1287H153.04C155.762 24.1287 158.1 24.5695 160.055 25.4511C162.048 26.3327 163.543 27.5593 164.539 29.1308C165.574 30.7023 166.092 32.4847 166.092 34.4779C166.092 36.816 165.459 38.7709 164.194 40.3424C162.968 41.914 161.32 43.0256 159.25 43.6772ZM144.531 40.6874H151.89C153.807 40.6874 155.283 40.2658 156.318 39.4225C157.352 38.5409 157.87 37.2952 157.87 35.6853C157.87 34.0754 157.352 32.8297 156.318 31.9481C155.283 31.0665 153.807 30.6257 151.89 30.6257H144.531V40.6874ZM152.638 57.706C154.593 57.706 156.107 57.246 157.18 56.326C158.292 55.406 158.847 54.103 158.847 52.417C158.847 50.692 158.272 49.3501 157.122 48.3918C155.973 47.3952 154.42 46.8969 152.465 46.8969H144.531V57.706H152.638Z" fill="#080808"/>
<path d="M185.271 64.778C182.205 64.778 179.445 64.107 176.992 62.766C174.539 61.386 172.603 59.45 171.185 56.959C169.805 54.467 169.115 51.592 169.115 48.3343C169.115 45.0762 169.824 42.2015 171.242 39.71C172.699 37.2185 174.673 35.302 177.164 33.9604C179.656 32.5805 182.435 31.8906 185.501 31.8906C188.567 31.8906 191.346 32.5805 193.838 33.9604C196.329 35.302 198.284 37.2185 199.702 39.71C201.159 42.2015 201.887 45.0762 201.887 48.3343C201.887 51.592 201.14 54.467 199.645 56.959C198.188 59.45 196.195 61.386 193.665 62.766C191.174 64.107 188.376 64.778 185.271 64.778ZM185.271 57.764C186.728 57.764 188.088 57.419 189.353 56.729C190.656 56 191.691 54.927 192.458 53.509C193.225 52.091 193.608 50.366 193.608 48.3343C193.608 45.3062 192.803 42.9872 191.193 41.3774C189.622 39.7292 187.686 38.905 185.386 38.905C183.086 38.905 181.151 39.7292 179.579 41.3774C178.046 42.9872 177.279 45.3062 177.279 48.3343C177.279 51.362 178.027 53.701 179.522 55.349C181.055 56.959 182.971 57.764 185.271 57.764Z" fill="#080808"/>
<path d="M213.541 37.3526C214.576 35.666 215.918 34.3436 217.566 33.3854C219.253 32.4271 221.169 31.948 223.316 31.948V40.3998H221.188C218.658 40.3998 216.742 40.994 215.439 42.1822C214.174 43.3704 213.541 45.4403 213.541 48.3917V64.2609H205.492V32.4079H213.541V37.3526Z" fill="#080808"/>
<path d="M224.368 48.2193C224.368 44.9996 225 42.144 226.265 39.6525C227.568 37.161 229.331 35.2445 231.555 33.9029C233.778 32.5614 236.25 31.8906 238.971 31.8906C241.041 31.8906 243.015 32.3505 244.894 33.2705C246.772 34.1521 248.267 35.3403 249.378 36.8352V21.7139H257.543V64.261H249.378V59.546C248.382 61.118 246.983 62.382 245.181 63.341C243.379 64.299 241.29 64.778 238.914 64.778C236.231 64.778 233.778 64.088 231.555 62.708C229.331 61.328 227.568 59.393 226.265 56.901C225 54.371 224.368 51.477 224.368 48.2193ZM249.436 48.3343C249.436 46.3795 249.052 44.7121 248.286 43.3322C247.519 41.914 246.484 40.8407 245.181 40.1125C243.878 39.3458 242.479 38.9625 240.984 38.9625C239.489 38.9625 238.109 39.3267 236.844 40.055C235.579 40.7832 234.544 41.8565 233.739 43.2747C232.973 44.6546 232.589 46.3028 232.589 48.2193C232.589 50.136 232.973 51.822 233.739 53.279C234.544 54.697 235.579 55.79 236.844 56.556C238.147 57.323 239.527 57.706 240.984 57.706C242.479 57.706 243.878 57.342 245.181 56.614C246.484 55.847 247.519 54.774 248.286 53.394C249.052 51.976 249.436 50.289 249.436 48.3343Z" fill="#080808"/>
<path d="M292.715 47.6444C292.715 48.7943 292.638 49.8292 292.485 50.749H269.199C269.391 53.049 270.195 54.85 271.614 56.154C273.032 57.457 274.776 58.109 276.846 58.109C279.836 58.109 281.963 56.825 283.228 54.256H291.91C290.99 57.323 289.227 59.853 286.62 61.846C284.014 63.801 280.813 64.778 277.018 64.778C273.952 64.778 271.192 64.107 268.739 62.766C266.324 61.386 264.427 59.45 263.047 56.959C261.705 54.467 261.035 51.592 261.035 48.3343C261.035 45.0379 261.705 42.144 263.047 39.6525C264.388 37.161 266.267 35.2445 268.681 33.9029C271.096 32.5614 273.875 31.8906 277.018 31.8906C280.046 31.8906 282.749 32.5422 285.125 33.8454C287.54 35.1487 289.399 37.0077 290.702 39.4225C292.044 41.799 292.715 44.5396 292.715 47.6444ZM284.378 45.3446C284.339 43.2747 283.592 41.6265 282.135 40.3999C280.679 39.135 278.896 38.5026 276.788 38.5026C274.795 38.5026 273.109 39.1159 271.729 40.3424C270.387 41.5307 269.563 43.198 269.256 45.3446H284.378Z" fill="#080808"/>
<path d="M304.339 37.3526C305.374 35.666 306.716 34.3436 308.364 33.3854C310.051 32.4271 311.967 31.948 314.114 31.948V40.3998H311.986C309.457 40.3998 307.54 40.994 306.237 42.1822C304.972 43.3704 304.339 45.4403 304.339 48.3917V64.2609H296.29V32.4079H304.339V37.3526Z" fill="#080808"/>
</svg>
