<svg width="138" height="115" viewBox="0 0 138 115" fill="none" xmlns="http://www.w3.org/2000/svg">
<path d="M126.5 0H11.5C5.14873 0 0 5.14873 0 11.5C0 17.8513 5.14873 23 11.5 23H126.5C132.851 23 138 17.8513 138 11.5C138 5.14873 132.851 0 126.5 0Z" fill="black"/>
<path d="M126.5 46H11.5C5.14873 46 0 51.1487 0 57.5C0 63.8513 5.14873 69 11.5 69H126.5C132.851 69 138 63.8513 138 57.5C138 51.1487 132.851 46 126.5 46Z" fill="black"/>
<path d="M126.5 92H11.5C5.14873 92 0 97.1487 0 103.5C0 109.851 5.14873 115 11.5 115H126.5C132.851 115 138 109.851 138 103.5C138 97.1487 132.851 92 126.5 92Z" fill="black"/>
</svg>
