<svg width="18" height="15" viewBox="0 0 18 15" fill="none" xmlns="http://www.w3.org/2000/svg">
<path d="M16.5 0H1.5C0.671573 0 0 0.671573 0 1.5C0 2.32843 0.671573 3 1.5 3H16.5C17.3284 3 18 2.32843 18 1.5C18 0.671573 17.3284 0 16.5 0Z" fill="#4B6DFF"/>
<path d="M16.5 6H1.5C0.671573 6 0 6.67157 0 7.5C0 8.32843 0.671573 9 1.5 9H16.5C17.3284 9 18 8.32843 18 7.5C18 6.67157 17.3284 6 16.5 6Z" fill="#4B6DFF"/>
<path d="M16.5 12H1.5C0.671573 12 0 12.6716 0 13.5C0 14.3284 0.671573 15 1.5 15H16.5C17.3284 15 18 14.3284 18 13.5C18 12.6716 17.3284 12 16.5 12Z" fill="#4B6DFF"/>
</svg>
